<?xml version="1.0" encoding="UTF-8" standalone="no"?>
<!-- Created with Inkscape (http://www.inkscape.org/) -->

<svg
   width="1024mm"
   height="1024mm"
   viewBox="0 0 1024 1024"
   version="1.1"
   id="svg1"
   xml:space="preserve"
   sodipodi:docname="logo-3.svg"
   inkscape:version="1.4.2 (ebf0e940, 2025-05-08)"
   inkscape:export-filename="logo/qinghua-logo1024.png"
   inkscape:export-xdpi="96"
   inkscape:export-ydpi="96"
   xmlns:inkscape="http://www.inkscape.org/namespaces/inkscape"
   xmlns:sodipodi="http://sodipodi.sourceforge.net/DTD/sodipodi-0.dtd"
   xmlns="http://www.w3.org/2000/svg"
   xmlns:svg="http://www.w3.org/2000/svg"><sodipodi:namedview
     id="namedview1"
     pagecolor="#ffffff"
     bordercolor="#000000"
     borderopacity="0.25"
     inkscape:showpageshadow="2"
     inkscape:pageopacity="0.0"
     inkscape:pagecheckerboard="0"
     inkscape:deskcolor="#d1d1d1"
     inkscape:document-units="mm"
     showguides="true"
     inkscape:zoom="0.25"
     inkscape:cx="969.99999"
     inkscape:cy="1748"
     inkscape:window-width="2192"
     inkscape:window-height="1353"
     inkscape:window-x="8"
     inkscape:window-y="33"
     inkscape:window-maximized="0"
     inkscape:current-layer="layer1" /><defs
     id="defs1" /><g
     inkscape:label="Layer 1"
     inkscape:groupmode="layer"
     id="layer1"><path
       id="path114"
       style="baseline-shift:baseline;display:inline;overflow:visible;vector-effect:none;fill:#0000ff;stroke-width:1;stroke-linecap:round;stroke-linejoin:round;enable-background:accumulate;stop-color:#000000"
       d="m 511.99969,71.9997 v 49.2337 c 17.58069,23.2934 49.04725,66.6849 82.85799,123.2116 C 561.04674,187.9178 529.5808,144.5267 512.0002,121.2334 V 71.9997 Z m -5.83737,0.9571 c -0.6461,0.2119 -1.2776,0.4579 -1.89291,0.7369 0.61723,-0.2798 1.24781,-0.5254 1.89291,-0.7369 z m 11.67525,0 c 0.6461,0.2119 1.2776,0.4579 1.89291,0.7369 -0.61723,-0.2798 -1.24781,-0.5254 -1.89291,-0.7369 z m -14.01413,0.9281 c -0.73559,0.3568 -1.44226,0.7655 -2.12287,1.2139 0.68252,-0.4495 1.38904,-0.858 2.12287,-1.2139 z m 16.35301,0 c 0.73559,0.3568 1.44226,0.7655 2.12287,1.2139 -0.68252,-0.4495 -1.38904,-0.858 -2.12287,-1.2139 z m -18.99419,1.5849 c -0.51771,0.3671 -1.01678,0.7602 -1.495,1.1787 0.47957,-0.4197 0.97788,-0.8122 1.495,-1.1787 z m 21.63537,0 c 0.51771,0.3671 1.01678,0.7602 1.495,1.1787 -0.47957,-0.4197 -0.97788,-0.8122 -1.495,-1.1787 z m -23.66315,1.6536 c -0.59702,0.5644 -1.17076,1.1564 -1.69137,1.7994 0.52259,-0.6455 1.09556,-1.2362 1.69137,-1.7994 z m 25.69093,0 c 0.59702,0.5644 1.17076,1.1564 1.69137,1.7994 -0.52259,-0.6455 -1.09556,-1.2362 -1.69137,-1.7994 z M 387.22126,320.628 c -24.73368,46.5319 -35.67586,80.2881 -35.67586,80.2881 3.04946,33.7565 9.57597,74.1619 22.83685,115.3201 25.31826,78.5805 67.07799,129.0187 104.95948,160.6207 -31.49345,16.3225 -69.36961,27.7193 -115.16248,32.0239 9.64474,20.4374 21.42185,34.853 21.44314,34.879 49.40673,-6.8739 90.70152,-22.149 119.32915,-38.9248 2.29379,-1.3442 4.64572,-2.7662 7.04866,-4.27 2.40284,1.5038 4.75446,2.9259 7.04815,4.27 28.62763,16.7758 69.92242,32.0509 119.32915,38.9248 0.0213,-0.026 11.7984,-14.4416 21.44314,-34.879 -45.79273,-4.3046 -83.66857,-15.7015 -115.16197,-32.0239 37.88141,-31.602 79.64078,-82.0404 104.95897,-160.6207 13.26088,-41.1582 19.78739,-81.5636 22.83685,-115.3201 0,0 -10.94218,-33.7562 -35.67586,-80.2881 1.11387,17.6885 4.44415,99.9945 -22.71127,184.2771 C 587.73854,586.6223 544.71356,632.3757 512.0002,656.8018 479.28681,632.3758 436.26142,586.6225 409.93253,504.9051 382.77711,420.6225 386.10739,338.3165 387.22126,320.628 Z m 83.14789,525.601 c 17.3017,17.4399 32.09064,30.7134 41.63054,38.9294 -9.53991,-8.216 -24.32884,-21.4896 -41.63054,-38.9294 z m 83.26159,0 c -17.3017,17.4399 -32.09064,30.7134 -41.63054,38.9294 9.53991,-8.216 24.32884,-21.4896 41.63054,-38.9294 z" /><path
       id="path34"
       style="baseline-shift:baseline;display:inline;overflow:visible;vector-effect:none;fill:#0000ff;stroke-width:1.00279;stroke-linecap:round;stroke-linejoin:round;enable-background:accumulate;stop-color:#000000"
       d="m 614.80045,72.005076 a 18.398245,18.637962 0 0 0 -7.00587,1.586225 18.398245,18.637962 0 0 0 -9.38876,24.582581 c 12.62754,28.941668 28.89934,57.495748 51.37153,78.538158 -24.80431,-2.7192 -40.67749,-5.15171 -40.67749,-5.15171 a 18.398245,18.637962 0 0 0 -20.94718,15.63422 18.398245,18.637962 0 0 0 15.43314,21.22012 c 0,0 24.91127,3.83036 61.36208,7.32047 -0.20305,32.45649 -1.5614,82.46852 -6.97863,133.3626 -4.59114,43.1331 -12.21827,86.84743 -23.81418,119.82113 -11.59592,32.97372 -26.86639,52.27616 -40.90616,56.0754 a 18.398245,18.637962 0 0 0 -13.0266,22.81624 18.398245,18.637962 0 0 0 22.52277,13.19633 c 33.60275,-9.09311 52.78669,-41.79665 66.07342,-79.5783 5.68318,-16.16051 10.34138,-33.78646 14.18439,-52.17049 8.47097,33.02878 12.83739,67.77963 10.44533,102.80995 -11.5011,168.42705 -132.75322,379.33153 -132.75322,379.33153 a 18.398245,18.637962 0 0 0 6.4853,25.52484 18.398245,18.637962 0 0 0 25.19859,-6.56928 c 0,0 125.22318,-211.8479 137.77855,-395.71384 4.55233,-66.66645 -12.27043,-130.17691 -35.32018,-184.2462 5.21003,-50.17968 6.63849,-98.86935 6.89846,-131.63895 9.20084,0.62604 18.75174,1.17506 28.51473,1.60392 22.65641,0.99523 46.36492,1.5915 69.72049,0.93497 23.35563,0.65653 47.06404,0.0602 69.72049,-0.93497 9.9537,-0.43723 19.68671,-0.99955 29.05329,-1.64088 -0.26761,32.4899 -1.70421,81.0194 -6.95807,130.3786 -4.59116,43.1331 -12.21622,86.84742 -23.81213,119.82113 -8.2562,23.47704 -18.37646,40.02371 -28.58821,48.97878 1.2848,-51.09752 15.68963,-100.80082 34.80732,-144.54166 a 18.398245,18.637962 0 0 0 -9.37541,-24.58881 18.398245,18.637962 0 0 0 -9.4083,-1.48941 18.398245,18.637962 0 0 0 -14.86223,10.98696 c -24.06278,55.05509 -41.99562,120.2878 -37.31304,188.86121 12.55536,183.86594 137.77855,395.71489 137.77855,395.71489 a 18.398245,18.637962 0 0 0 25.19654,6.56978 18.398245,18.637962 0 0 0 6.4853,-25.52692 c 0,0 -114.20479,-198.64735 -131.45359,-364.32513 30.72881,-10.75306 48.73687,-42.1374 61.39444,-78.13002 13.28672,-37.78164 20.97066,-83.57359 25.7351,-128.33478 5.61215,-52.72527 7.00651,-104.09359 7.20475,-137.41432 36.13383,-3.47499 60.78034,-7.26477 60.78034,-7.26477 a 18.398245,18.637962 0 0 0 15.4331,-21.22012 18.398245,18.637962 0 0 0 -20.94766,-15.63422 c 0,0 -15.87267,2.43251 -40.67696,5.15171 22.47219,-21.04242 38.74399,-49.59649 51.37162,-78.538158 a 18.398245,18.637962 0 0 0 -9.38938,-24.582581 18.398245,18.637962 0 0 0 -9.41035,-1.483669 18.398245,18.637962 0 0 0 -14.85605,10.996853 c -15.14443,34.710305 -36.02018,65.455405 -60.04497,79.196185 -21.69146,12.40625 -63.0664,18.80967 -107.86449,20.84789 -44.7981,-2.03822 -86.17303,-8.44164 -107.86449,-20.84789 -24.02478,-13.74079 -44.90052,-44.48589 -60.04496,-79.196185 a 18.398245,18.637962 0 0 0 -14.85657,-10.996853 18.398245,18.637962 0 0 0 -2.40449,-0.102556 z" /></g></svg>
