<?xml version="1.0" encoding="UTF-8" standalone="no"?>
<svg
    xmlns="http://www.w3.org/2000/svg"
    xmlns:inkscape="http://www.inkscape.org/namespaces/inkscape"
    xmlns:xlink="http://www.w3.org/1999/xlink"
    version="1.1"
    width="1000"
    height="1000"
    viewBox="0 0 1 1">

    <path
        id="path0"
        d="M 0.350516 0.295698 L 0.356857 0.283392 L 0.363250 0.271113 L 0.369748 0.258890 L 0.376382 0.246740 L 0.383145 0.234661 L 0.390034 0.222654 L 0.397044 0.210717 L 0.404170 0.198849 L 0.411409 0.187049 L 0.418757 0.175318 L 0.426213 0.163654 L 0.433773 0.152057 L 0.441435 0.140529 L 0.449200 0.129070 L 0.457068 0.117678 L 0.465039 0.106359 L 0.473114 0.095116 L 0.481301 0.083953 L 0.489609 0.072882 L 0.498075 0.061931"
        style="fill:none;stroke:#000000;stroke-width:0.002;stroke-linecap:round;stroke-linejoin:round;"
        inkscape:connector-curvature="0" />
    
    <path
        id="path1"
        d="M 0.498075 0.913105 L 0.446252 0.865734 L 0.398735 0.814031 L 0.356188 0.758179 L 0.320236 0.697892 L 0.293411 0.633064 L 0.279610 0.564339 L 0.282587 0.494332 L 0.298227 0.425910 L 0.321662 0.359723 L 0.350516 0.295698"
        style="fill:none;stroke:#000000;stroke-width:0.002;stroke-linecap:round;stroke-linejoin:round;"
        inkscape:connector-curvature="0" />
    
    <path
        id="path2"
        d="M 0.350534 0.295707 L 0.351913 0.380151 L 0.365377 0.463534 L 0.392652 0.543415 L 0.436808 0.615238 L 0.498075 0.673227"
        style="fill:none;stroke:#000000;stroke-width:0.002;stroke-linecap:round;stroke-linejoin:round;"
        inkscape:connector-curvature="0" />
    
    <path
        id="path3"
        d="M 0.334693 0.724869 L 0.369143 0.721156 L 0.403117 0.714366 L 0.436244 0.704228 L 0.468053 0.690513 L 0.498075 0.673227"
        style="fill:none;stroke:#000000;stroke-width:0.002;stroke-linecap:round;stroke-linejoin:round;"
        inkscape:connector-curvature="0" />
    
    <path
        id="path4"
        d="M 0.334693 0.724869 L 0.369143 0.721156 L 0.403117 0.714366 L 0.436244 0.704228 L 0.468053 0.690513 L 0.498075 0.673227"
        style="fill:none;stroke:#000000;stroke-width:0.002;stroke-linecap:round;stroke-linejoin:round;"
        inkscape:connector-curvature="0" />
    
    <path
        id="path5"
        d="M 0.334693 0.724869 L 0.309646 0.723839 L 0.284639 0.722117 L 0.259786 0.718888 L 0.235302 0.713541 L 0.211418 0.705965 L 0.188363 0.696151 L 0.166355 0.684168 L 0.145579 0.670157 L 0.126168 0.654309 L 0.108193 0.636847 L 0.091677 0.617998 L 0.076600 0.597977 L 0.062918 0.576977 L 0.050572 0.555165 L 0.039497 0.532680 L 0.029634 0.509637 L 0.020937 0.486127 L 0.013381 0.462226 L 0.006987 0.437990 L 0.001933 0.413448 L 0.003345 0.454000 L 0.007440 0.494380 L 0.013923 0.534449 L 0.022796 0.574057 L 0.034150 0.613023 L 0.048117 0.651132 L 0.064837 0.688112 L 0.084445 0.723646 L 0.107029 0.757361 L 0.132612 0.788859 L 0.161119 0.817738 L 0.192355 0.843634 L 0.226028 0.866274 L 0.261760 0.885504 L 0.299147 0.901303 L 0.337762 0.913757 L 0.377266 0.923056 L 0.417341 0.929548 L 0.457659 0.934222 L 0.498075 0.938069"
        style="fill:none;stroke:#000000;stroke-width:0.002;stroke-linecap:round;stroke-linejoin:round;"
        inkscape:connector-curvature="0" />
    
    <path
        id="path6"
        d="M 0.013923 0.534449 L 0.022796 0.574057"
        style="fill:none;stroke:#000000;stroke-width:0.002;stroke-linecap:round;stroke-linejoin:round;"
        inkscape:connector-curvature="0" />
    
    <path
        id="path7"
        d="M 0.062918 0.576977 L 0.076600 0.597977"
        style="fill:none;stroke:#000000;stroke-width:0.002;stroke-linecap:round;stroke-linejoin:round;"
        inkscape:connector-curvature="0" />
    
    <path
        id="path8"
        d="M 0.649483 0.295698 L 0.643143 0.283392 L 0.636750 0.271113 L 0.630251 0.258890 L 0.623618 0.246740 L 0.616855 0.234661 L 0.609966 0.222654 L 0.602956 0.210717 L 0.595830 0.198849 L 0.588591 0.187049 L 0.581243 0.175318 L 0.573787 0.163654 L 0.566227 0.152057 L 0.558565 0.140529 L 0.550800 0.129070 L 0.542931 0.117678 L 0.534961 0.106359 L 0.526886 0.095116 L 0.518699 0.083953 L 0.510391 0.072883 L 0.501925 0.061931"
        style="fill:none;stroke:#000000;stroke-width:0.002;stroke-linecap:round;stroke-linejoin:round;"
        inkscape:connector-curvature="0" />
    
    <path
        id="path9"
        d="M 0.649465 0.295707 L 0.648087 0.380151 L 0.634623 0.463534 L 0.607348 0.543415 L 0.563192 0.615238 L 0.501925 0.673227"
        style="fill:none;stroke:#000000;stroke-width:0.002;stroke-linecap:round;stroke-linejoin:round;"
        inkscape:connector-curvature="0" />
    
    <path
        id="path10"
        d="M 0.665305 0.724869 L 0.648042 0.723366 L 0.630856 0.721156 L 0.613788 0.718165 L 0.596882 0.714366 L 0.580186 0.709730 L 0.563756 0.704228 L 0.547653 0.697829 L 0.531947 0.690514 L 0.516709 0.682265 L 0.501925 0.673227"
        style="fill:none;stroke:#000000;stroke-width:0.002;stroke-linecap:round;stroke-linejoin:round;"
        inkscape:connector-curvature="0" />
    
    <path
        id="path11"
        d="M 0.501925 0.913105 L 0.553706 0.865695 L 0.601148 0.813931 L 0.643633 0.758037 L 0.679777 0.697867 L 0.706596 0.633042 L 0.720391 0.564321 L 0.717411 0.494318 L 0.701770 0.425902 L 0.678337 0.359719 L 0.649483 0.295698"
        style="fill:none;stroke:#000000;stroke-width:0.002;stroke-linecap:round;stroke-linejoin:round;"
        inkscape:connector-curvature="0" />
    
    <path
        id="path12"
        d="M 0.998066 0.413448 L 0.993013 0.437990 L 0.986619 0.462226 L 0.979063 0.486127 L 0.970365 0.509637 L 0.960503 0.532680 L 0.949428 0.555165 L 0.937081 0.576977 L 0.923400 0.597977 L 0.908323 0.617999 L 0.891807 0.636848 L 0.873832 0.654310 L 0.854420 0.670157 L 0.833644 0.684169 L 0.811637 0.696152 L 0.788581 0.705965 L 0.764697 0.713541 L 0.740213 0.718888 L 0.715360 0.722117 L 0.690352 0.723839 L 0.665305 0.724869"
        style="fill:none;stroke:#000000;stroke-width:0.002;stroke-linecap:round;stroke-linejoin:round;"
        inkscape:connector-curvature="0" />
    
    <path
        id="path13"
        d="M 0.501925 0.938069 L 0.542341 0.934222 L 0.582659 0.929548 L 0.622734 0.923055 L 0.662237 0.913757 L 0.700853 0.901303 L 0.738240 0.885504 L 0.773971 0.866274 L 0.807644 0.843633 L 0.838881 0.817738 L 0.867388 0.788859 L 0.892971 0.757361 L 0.915555 0.723646 L 0.935163 0.688112 L 0.951883 0.651132 L 0.965850 0.613023 L 0.977204 0.574057 L 0.986077 0.534449 L 0.992560 0.494380 L 0.996654 0.454000 L 0.998066 0.413448"
        style="fill:none;stroke:#000000;stroke-width:0.002;stroke-linecap:round;stroke-linejoin:round;"
        inkscape:connector-curvature="0" />
    </svg>