<?xml version="1.0" encoding="UTF-8" standalone="no"?>
<!-- Created with Inkscape (http://www.inkscape.org/) -->

<svg
   width="1024mm"
   height="1024mm"
   viewBox="0 0 1024 1024"
   version="1.1"
   id="svg1"
   xml:space="preserve"
   sodipodi:docname="logo-2.svg"
   inkscape:version="1.4.2 (ebf0e940, 2025-05-08)"
   inkscape:export-filename="logo/qinghua-logo1024.png"
   inkscape:export-xdpi="96"
   inkscape:export-ydpi="96"
   xmlns:inkscape="http://www.inkscape.org/namespaces/inkscape"
   xmlns:sodipodi="http://sodipodi.sourceforge.net/DTD/sodipodi-0.dtd"
   xmlns="http://www.w3.org/2000/svg"
   xmlns:svg="http://www.w3.org/2000/svg"><sodipodi:namedview
     id="namedview1"
     pagecolor="#ffffff"
     bordercolor="#000000"
     borderopacity="0.25"
     inkscape:showpageshadow="2"
     inkscape:pageopacity="0.0"
     inkscape:pagecheckerboard="0"
     inkscape:deskcolor="#d1d1d1"
     inkscape:document-units="mm"
     showguides="true"
     inkscape:zoom="0.25"
     inkscape:cx="969.99999"
     inkscape:cy="1748"
     inkscape:window-width="2192"
     inkscape:window-height="1353"
     inkscape:window-x="8"
     inkscape:window-y="33"
     inkscape:window-maximized="0"
     inkscape:current-layer="layer1" /><defs
     id="defs1" /><g
     inkscape:label="Layer 1"
     inkscape:groupmode="layer"
     id="layer1"><path
       id="path113"
       style="baseline-shift:baseline;display:inline;overflow:visible;vector-effect:none;fill:#00ff00;stroke-width:1;stroke-linecap:round;stroke-linejoin:round;enable-background:accumulate;stop-color:#000000"
       d="m 31.461056,410.1832 c -0.557207,0.1004 -1.109471,0.2258 -1.655196,0.3762 -0.558801,-0.093 -1.121747,-0.1601 -1.686719,-0.202 -1.017617,0.3331 -2.004459,0.7527 -2.949691,1.2542 -1.531165,0.4314 -3.000443,1.0561 -4.372343,1.8582 -1.295099,0.9205 -2.466913,2.0017 -3.486092,3.2179 -1.109583,1.1359 -2.068231,2.4084 -2.853056,3.7864 -0.658592,1.4403 -1.129462,2.9584 -1.400948,4.5175 -0.402657,0.9876 -0.719031,2.0078 -0.945679,3.0494 0,0 -5.1531359,129.3919 54.750147,259.8602 59.903281,130.4682 188.710531,262.8764 445.049841,264.0991 0.0296,-0.01 0.0593,-0.016 0.0889,-0.024 0.0293,0.01 0.0596,0.014 0.0889,0.024 C 768.42841,950.7775 897.23567,818.3694 957.13895,687.9012 1017.0422,557.4329 1011.889,428.041 1011.889,428.041 c -0.2266,-1.0416 -0.543,-2.0618 -0.9456,-3.0494 -0.2715,-1.5591 -0.7424,-3.0772 -1.401,-4.5175 -0.7849,-1.378 -1.7439,-2.6505 -2.8536,-3.7864 -1.0191,-1.2161 -2.1904,-2.2974 -3.4855,-3.2179 -1.3719,-0.8021 -2.8411,-1.4268 -4.37232,-1.8582 -0.94522,-0.5015 -1.93207,-0.9211 -2.94969,-1.2542 -0.56497,0.042 -1.12793,0.109 -1.68672,0.202 -0.54573,-0.1504 -1.09798,-0.2758 -1.65519,-0.3762 -1.04725,0.2254 -2.07301,0.54 -3.06597,0.9405 -1.56731,0.2701 -3.0934,0.7382 -4.54132,1.3932 -1.38618,0.7805 -2.66639,1.7344 -3.80907,2.8381 -1.22183,1.0132 -2.30846,2.1776 -3.2334,3.4649 -0.80651,1.3645 -1.43439,2.8261 -1.8681,4.3491 -0.50425,0.9401 -0.92595,1.9216 -1.2609,2.9337 0,0 -11.43529,77.8424 -56.65184,152.015 -40.58297,66.5717 -105.18839,128.9245 -216.45966,132.2028 0,0 -24.03185,0.6409 -41.82845,-1.4397 -9.65353,20.4559 -21.44314,34.879 -21.44314,34.879 -9.01577,13.4909 -18.46467,26.3803 -28.04015,38.5418 -39.18178,49.7635 -79.25736,86.4249 -98.33715,102.8568 -19.07977,-16.4318 -59.1553,-53.0937 -98.33715,-102.8573 -9.57548,-12.1615 -19.0249,-25.0504 -28.04066,-38.5413 0,0 -11.78961,-14.4231 -21.44314,-34.879 -17.7966,2.0806 -41.82794,1.4397 -41.82794,1.4397 C 211.08004,707.0425 146.47465,644.6899 105.89169,578.1182 60.675138,503.9456 49.239846,426.1027 49.239846,426.1027 c -0.334942,-1.0121 -0.757174,-1.9935 -1.261422,-2.9337 -0.433706,-1.5229 -1.061593,-2.9846 -1.868103,-4.3491 -0.92493,-1.2873 -2.01105,-2.4517 -3.232878,-3.4649 -1.142685,-1.1037 -2.422885,-2.0577 -3.80907,-2.8381 -1.447922,-0.655 -2.974021,-1.1232 -4.541325,-1.3932 -0.99296,-0.4005 -2.018712,-0.7151 -3.065962,-0.9405 z" /><path
       id="path61"
       style="baseline-shift:baseline;display:inline;overflow:visible;vector-effect:none;fill:#00ff00;stroke-width:1.00279;stroke-linecap:round;stroke-linejoin:round;enable-background:accumulate;stop-color:#000000"
       d="m 129.88214,336.68075 c -10.25211,3.8e-4 -18.56283,8.41986 -18.56263,18.80556 -1.5e-4,3.45696 0.94035,6.84708 2.71818,9.79785 21.91255,50.80355 37.33142,109.47212 33.27021,168.94628 -11.50111,168.42707 -132.751691,379.33085 -132.751691,379.33085 -5.166924,8.86295 -2.263368,20.29096 6.485372,25.52558 8.749133,5.23506 20.030983,2.2937 25.198385,-6.56963 0,0 125.223394,-211.84943 137.778764,-395.71538 3.95561,-57.92763 -8.22711,-113.47127 -26.6107,-162.50947 h 178.76735 c -5.65063,15.07337 -10.71531,30.76151 -14.9055,46.94443 h -148.9558 c -10.25212,6.4e-4 -18.56257,8.42039 -18.56212,18.80609 6.1e-4,10.38493 8.31075,18.80338 18.56212,18.80402 h 141.05915 c -2.92539,18.28402 -4.56612,37.04301 -4.55372,56.12473 h -129.0935 c -10.25136,6.3e-4 -18.56201,8.41909 -18.56264,18.80402 -4.4e-4,10.3857 8.31052,18.80547 18.56264,18.80609 h 131.18225 c 18.24769,179.98692 136.43467,379.93547 136.43467,379.93547 5.16741,8.86332 16.44925,11.80468 25.19838,6.56963 8.74874,-5.23462 11.6523,-16.66263 6.48538,-25.52558 0,0 -120.86997,-210.24106 -132.69693,-378.53606 0.0267,-0.41296 0.0403,-0.82973 0.0403,-1.24955 -7e-5,-1.23688 -0.11805,-2.44559 -0.34312,-3.6158 -1.51952,-28.41032 1.34471,-56.60002 7.17369,-83.79746 0.4993,-1.41759 0.83546,-2.91344 0.98547,-4.46485 6.08468,-26.79906 14.99558,-52.58601 25.35909,-76.61341 1.77783,-2.95077 2.71833,-6.34089 2.71818,-9.79785 2e-4,-10.3857 -8.31052,-18.80518 -18.56263,-18.80556 z"
       sodipodi:nodetypes="cccscscscccccccccccccsccsccccccc" /></g></svg>
