<?xml version="1.0" encoding="UTF-8" standalone="no"?>
<!-- Created with Inkscape (http://www.inkscape.org/) -->

<svg
   width="1024mm"
   height="1024mm"
   viewBox="0 0 1024 1024"
   version="1.1"
   id="svg1"
   xml:space="preserve"
   sodipodi:docname="logo-1.svg"
   inkscape:version="1.4.2 (ebf0e940, 2025-05-08)"
   inkscape:export-filename="logo/qinghua-logo1024.png"
   inkscape:export-xdpi="96"
   inkscape:export-ydpi="96"
   xmlns:inkscape="http://www.inkscape.org/namespaces/inkscape"
   xmlns:sodipodi="http://sodipodi.sourceforge.net/DTD/sodipodi-0.dtd"
   xmlns="http://www.w3.org/2000/svg"
   xmlns:svg="http://www.w3.org/2000/svg"><sodipodi:namedview
     id="namedview1"
     pagecolor="#ffffff"
     bordercolor="#000000"
     borderopacity="0.25"
     inkscape:showpageshadow="2"
     inkscape:pageopacity="0.0"
     inkscape:pagecheckerboard="0"
     inkscape:deskcolor="#d1d1d1"
     inkscape:document-units="mm"
     showguides="true"
     inkscape:zoom="0.35355339"
     inkscape:cx="1657.4583"
     inkscape:cy="1626.3456"
     inkscape:window-width="2192"
     inkscape:window-height="1353"
     inkscape:window-x="8"
     inkscape:window-y="25"
     inkscape:window-maximized="0"
     inkscape:current-layer="layer1" /><defs
     id="defs1" /><g
     inkscape:label="Layer 1"
     inkscape:groupmode="layer"
     id="layer1"><path
       id="path112"
       style="baseline-shift:baseline;display:inline;overflow:visible;vector-effect:none;fill:#ff0000;stroke-width:1;stroke-linecap:round;stroke-linejoin:round;enable-background:accumulate;stop-color:#000000"
       d="M 511.99976 72.000256 C 511.7942 72.000256 511.58797 72.000592 511.38171 72.010592 C 509.73243 72.064592 508.09795 72.336078 506.5205 72.817778 C 502.94966 73.908678 499.78957 76.039967 497.44974 78.936267 C 497.44974 78.936267 448.38064 139.66236 397.06155 225.46066 C 382.45294 249.88426 367.89806 276.66513 353.89416 304.44033 C 352.37362 306.47783 351.28909 308.80384 350.70779 311.27454 C 316.98422 379.35144 288.35335 454.40225 281.48669 526.96835 C 275.27719 592.58825 293.91753 655.12565 322.35087 710.31995 L 322.35138 710.31995 C 322.35138 710.31995 346.38225 710.96136 364.1788 708.88076 C 333.53072 654.25266 312.78216 592.48281 318.65238 530.44721 C 322.58882 488.84711 334.82038 444.5734 351.54547 400.9161 C 351.54547 400.9161 362.48713 367.15936 387.22081 320.62746 C 400.6535 293.83216 414.96584 268.14523 429.14176 244.44503 C 462.95269 187.91793 494.41917 144.52653 511.99976 121.23343 L 512.00027 121.23394 C 529.58087 144.52714 561.04681 187.91834 594.85775 244.44554 C 609.03366 268.14564 623.34601 293.83277 636.7787 320.62797 C 661.51238 367.15987 672.45456 400.91661 672.45456 400.91661 C 689.17964 444.57391 701.41068 488.84753 705.34713 530.44773 C 711.21734 592.48323 690.46879 654.25318 659.82071 708.88128 C 677.61726 710.96178 701.64813 710.32047 701.64813 710.32047 L 701.64865 710.32047 C 730.08199 655.12617 748.72232 592.58835 742.51282 526.96835 C 735.64616 454.40225 707.01528 379.35134 673.29172 311.27454 C 672.71041 308.80374 671.6259 306.47793 670.10535 304.44033 C 656.10145 276.66513 641.54708 249.88416 626.93848 225.46066 C 575.61938 139.66226 526.54977 78.936784 526.54977 78.936784 C 524.20994 76.040484 521.05036 73.909294 517.47952 72.818294 C 515.90208 72.336594 514.26708 72.064792 512.61781 72.010592 C 512.41172 72.0006 512.20567 72.000257 512.00027 72.000256 L 511.99976 72.000256 z " /><path
       id="path68"
       style="baseline-shift:baseline;display:inline;overflow:visible;vector-effect:none;fill:#ff0000;stroke-width:1.00279;stroke-linecap:round;stroke-linejoin:round;enable-background:accumulate;stop-color:#000000"
       d="m 61.620941,72.005076 a 18.398245,18.637962 0 0 0 -7.005349,1.586225 18.398245,18.637962 0 0 0 -9.389285,24.582581 c 12.627536,28.941678 28.899348,57.495748 51.371532,78.538158 -24.804298,-2.7192 -40.67748,-5.15171 -40.67748,-5.15171 a 18.398245,18.637962 0 0 0 -20.947186,15.63422 18.398245,18.637962 0 0 0 15.433145,21.22012 c 0,0 58.094952,8.9333 126.664652,11.94535 16.83394,0.73947 34.24882,1.2585 51.66804,1.20724 l -0.34482,38.71648 H 108.74825 A 18.563322,18.80519 0 0 0 90.183978,279.0899 18.563322,18.80519 0 0 0 108.74825,297.89606 H 384.83671 A 18.563322,18.80519 0 0 0 403.39894,279.0899 18.563322,18.80519 0 0 0 384.83671,260.28374 H 265.52378 l 0.3443,-38.71388 c 17.07742,0.0285 34.13985,-0.48487 50.64386,-1.20984 68.5697,-3.01205 126.66465,-11.94535 126.66465,-11.94535 a 18.398245,18.637962 0 0 0 15.43314,-21.22012 18.398245,18.637962 0 0 0 -20.94718,-15.63422 c 0,0 -15.87317,2.43251 -40.67748,5.15171 22.47219,-21.04241 38.744,-49.59648 51.37153,-78.538158 a 18.398245,18.637962 0 0 0 -9.38928,-24.582581 18.398245,18.637962 0 0 0 -9.40984,-1.483669 18.398245,18.637962 0 0 0 -14.85657,10.996853 c -15.14442,34.710285 -36.02017,65.455395 -60.04497,79.196185 -18.51164,10.58758 -51.35904,16.80348 -88.43533,19.66512 l 0.32837,-36.87516 a 18.563322,18.80519 0 0 0 -18.3952,-18.97535 18.563322,18.80519 0 0 0 -18.73079,18.63488 l -0.33248,37.3463 C 191.3084,179.29585 157.72572,173.05247 138.92697,162.30067 114.90218,148.55988 94.026425,117.81477 78.881994,83.104485 A 18.398245,18.637962 0 0 0 64.025432,72.107632 18.398245,18.637962 0 0 0 61.620941,72.005076 Z" /></g></svg>
