<?xml version="1.0" encoding="UTF-8" standalone="no"?>
<svg
    xmlns="http://www.w3.org/2000/svg"
    xmlns:inkscape="http://www.inkscape.org/namespaces/inkscape"
    xmlns:xlink="http://www.w3.org/1999/xlink"
    version="1.1"
    width="1000"
    height="1000"
    viewBox="0 0 1 1">

    <path
        id="path0"
        d="M 0.035187 0.061934 L 0.042615 0.085224 L 0.054788 0.106453 L 0.070730 0.125025 L 0.089672 0.140529 L 0.110823 0.152872 L 0.133459 0.162223 L 0.157027 0.168908 L 0.181134 0.173291 L 0.205516 0.175723 L 0.230010 0.176523 L 0.254506 0.175782 L 0.278897 0.173413 L 0.303015 0.169096 L 0.326599 0.162471 L 0.349253 0.153161 L 0.370405 0.140827 L 0.389316 0.125284 L 0.405162 0.106633 L 0.417156 0.085304 L 0.424325 0.061934"
        style="fill:none;stroke:#000000;stroke-width:0.002;stroke-linecap:round;stroke-linejoin:round;"
        inkscape:connector-curvature="0" />
    
    <path
        id="path1"
        d="M 0.026552 0.177280 L 0.067339 0.177280 L 0.108126 0.177280 L 0.148912 0.177280 L 0.189699 0.177280 L 0.230485 0.177280 L 0.271272 0.177280 L 0.312059 0.177280 L 0.352845 0.177280 L 0.393632 0.177280 L 0.434419 0.177280"
        style="fill:none;stroke:#000000;stroke-width:0.002;stroke-linecap:round;stroke-linejoin:round;"
        inkscape:connector-curvature="0" />
    
    <path
        id="path2"
        d="M 0.231014 0.118524 L 0.230762 0.146499 L 0.230510 0.174474 L 0.230259 0.202449 L 0.230007 0.230424 L 0.229756 0.258399"
        style="fill:none;stroke:#000000;stroke-width:0.002;stroke-linecap:round;stroke-linejoin:round;"
        inkscape:connector-curvature="0" />
    
    <path
        id="path3"
        d="M 0.084365 0.258399 L 0.142521 0.258399 L 0.200677 0.258399 L 0.258834 0.258399 L 0.316990 0.258399 L 0.375147 0.258399"
        style="fill:none;stroke:#000000;stroke-width:0.002;stroke-linecap:round;stroke-linejoin:round;"
        inkscape:connector-curvature="0" />
    
    <path
        id="path4"
        d="M 0.084365 0.258399 L 0.142521 0.258399 L 0.200677 0.258399 L 0.258834 0.258399 L 0.316990 0.258399 L 0.375147 0.258399"
        style="fill:none;stroke:#000000;stroke-width:0.002;stroke-linecap:round;stroke-linejoin:round;"
        inkscape:connector-curvature="0" />
    
    <path
        id="path5"
        d="M 0.457666 0.929730 L 0.441787 0.900953 L 0.426667 0.871762 L 0.412209 0.842241 L 0.398405 0.812407 L 0.385286 0.782266 L 0.372899 0.751814 L 0.361318 0.721050 L 0.350634 0.689963 L 0.340965 0.658545 L 0.332466 0.626792 L 0.325334 0.594704 L 0.319816 0.562299 L 0.315895 0.529645 L 0.314691 0.496838 L 0.317025 0.464060 L 0.322347 0.431631 L 0.330317 0.399748 L 0.340615 0.368537 L 0.352887 0.338044 L 0.106624 0.338044 L 0.118326 0.366995 L 0.128264 0.396595 L 0.136130 0.426810 L 0.141650 0.457539 L 0.144535 0.488625 L 0.144427 0.519826 L 0.141234 0.550895 L 0.136594 0.581779 L 0.130438 0.612393 L 0.122953 0.642711 L 0.114331 0.672724 L 0.104719 0.702437 L 0.094237 0.731854 L 0.082978 0.760983 L 0.071014 0.789828 L 0.058399 0.818398 L 0.045175 0.846689 L 0.031361 0.874698 L 0.016950 0.902404 L 0.001846 0.929730"
        style="fill:none;stroke:#000000;stroke-width:0.002;stroke-linecap:round;stroke-linejoin:round;"
        inkscape:connector-curvature="0" />
    
    <path
        id="path6"
        d="M 0.140589 0.449589 L 0.316072 0.449589"
        style="fill:none;stroke:#000000;stroke-width:0.002;stroke-linecap:round;stroke-linejoin:round;"
        inkscape:connector-curvature="0" />
    
    <path
        id="path7"
        d="M 0.140537 0.561134 L 0.318974 0.561134"
        style="fill:none;stroke:#000000;stroke-width:0.002;stroke-linecap:round;stroke-linejoin:round;"
        inkscape:connector-curvature="0" />
    
    <path
        id="path8"
        d="M 0.599653 0.061934 L 0.607080 0.085224 L 0.619253 0.106454 L 0.635195 0.125025 L 0.654138 0.140529 L 0.675288 0.152871 L 0.697924 0.162223 L 0.721492 0.168908 L 0.745599 0.173291 L 0.769982 0.175723 L 0.794476 0.176523 L 0.818972 0.175782 L 0.843363 0.173413 L 0.867480 0.169096 L 0.891065 0.162471 L 0.913718 0.153161 L 0.934870 0.140827 L 0.953782 0.125284 L 0.969628 0.106633 L 0.981622 0.085304 L 0.988791 0.061934"
        style="fill:none;stroke:#000000;stroke-width:0.002;stroke-linecap:round;stroke-linejoin:round;"
        inkscape:connector-curvature="0" />
    
    <path
        id="path9"
        d="M 0.590289 0.177280 L 0.671862 0.177280 L 0.753435 0.177280 L 0.835008 0.177280 L 0.916581 0.177280 L 0.998155 0.177280"
        style="fill:none;stroke:#000000;stroke-width:0.002;stroke-linecap:round;stroke-linejoin:round;"
        inkscape:connector-curvature="0" />
    
    <path
        id="path10"
        d="M 0.590271 0.561151 L 0.621872 0.535753 L 0.641667 0.500148 L 0.654490 0.461382 L 0.663384 0.421512 L 0.669723 0.381151 L 0.674225 0.340541 L 0.677304 0.299799 L 0.679208 0.258984 L 0.680069 0.218135 L 0.679864 0.177280"
        style="fill:none;stroke:#000000;stroke-width:0.002;stroke-linecap:round;stroke-linejoin:round;"
        inkscape:connector-curvature="0" />
    
    <path
        id="path11"
        d="M 0.851133 0.561151 L 0.882734 0.535754 L 0.902529 0.500149 L 0.915352 0.461382 L 0.924245 0.421512 L 0.930584 0.381151 L 0.935087 0.340542 L 0.938165 0.299799 L 0.940069 0.258984 L 0.940931 0.218135 L 0.940724 0.177280"
        style="fill:none;stroke:#000000;stroke-width:0.002;stroke-linecap:round;stroke-linejoin:round;"
        inkscape:connector-curvature="0" />
    
    <path
        id="path12"
        d="M 0.674934 0.338044 L 0.686635 0.366995 L 0.696573 0.396595 L 0.704439 0.426810 L 0.709959 0.457539 L 0.712844 0.488625 L 0.712736 0.519826 L 0.709543 0.550895 L 0.704903 0.581779 L 0.698747 0.612393 L 0.691262 0.642710 L 0.682639 0.672724 L 0.673028 0.702437 L 0.662546 0.731854 L 0.651287 0.760983 L 0.639323 0.789828 L 0.626708 0.818398 L 0.613484 0.846689 L 0.599670 0.874698 L 0.585260 0.902404 L 0.570155 0.929730"
        style="fill:none;stroke:#000000;stroke-width:0.002;stroke-linecap:round;stroke-linejoin:round;"
        inkscape:connector-curvature="0" />
    
    <path
        id="path13"
        d="M 0.884480 0.346380 L 0.872779 0.375331 L 0.862842 0.404931 L 0.854975 0.435146 L 0.849455 0.465875 L 0.846570 0.496960 L 0.846678 0.528162 L 0.849871 0.559231 L 0.854511 0.590115 L 0.860667 0.620729 L 0.868152 0.651046 L 0.876774 0.681060 L 0.886386 0.710773 L 0.896867 0.740189 L 0.908127 0.769319 L 0.920091 0.798163 L 0.932705 0.826734 L 0.945929 0.855026 L 0.959743 0.883034 L 0.974154 0.910740 L 0.989259 0.938066"
        style="fill:none;stroke:#000000;stroke-width:0.002;stroke-linecap:round;stroke-linejoin:round;"
        inkscape:connector-curvature="0" />
    </svg>