<?xml version="1.0" encoding="UTF-8" standalone="no"?>
<svg
    xmlns="http://www.w3.org/2000/svg"
    xmlns:inkscape="http://www.inkscape.org/namespaces/inkscape"
    xmlns:xlink="http://www.w3.org/1999/xlink"
    version="1.1"
    width="1000"
    height="1000"
    viewBox="0 0 1 1">

    <path
        id="path-A1"
        d="M 0.350516 0.295698 L 0.356857 0.283392 L 0.363250 0.271113 L 0.369748 0.258890 L 0.376382 0.246740 L 0.383145 0.234661 L 0.390034 0.222654 L 0.397044 0.210717 L 0.404170 0.198849 L 0.411409 0.187049 L 0.418757 0.175318 L 0.426213 0.163654 L 0.433773 0.152057 L 0.441435 0.140529 L 0.449200 0.129070 L 0.457068 0.117678 L 0.465039 0.106359 L 0.473114 0.095116 L 0.481301 0.083953 L 0.489609 0.072882 L 0.498075 0.061931"
        style="fill:none;stroke:#000000;stroke-width:0.002;stroke-linecap:round;stroke-linejoin:round;"
        inkscape:connector-curvature="0" />
    
    <path
        id="path-A2"
        d="M 0.498075 0.913105 L 0.446252 0.865734 L 0.398735 0.814031 L 0.356188 0.758179 L 0.320236 0.697892 L 0.293411 0.633064 L 0.279610 0.564339 L 0.282587 0.494332 L 0.298227 0.425910 L 0.321662 0.359723 L 0.350516 0.295698"
        style="fill:none;stroke:#000000;stroke-width:0.002;stroke-linecap:round;stroke-linejoin:round;"
        inkscape:connector-curvature="0" />
    
    <path
        id="path-A3"
        d="M 0.350534 0.295707 L 0.351913 0.380151 L 0.365377 0.463534 L 0.392652 0.543415 L 0.436808 0.615238 L 0.498075 0.673227"
        style="fill:none;stroke:#000000;stroke-width:0.002;stroke-linecap:round;stroke-linejoin:round;"
        inkscape:connector-curvature="0" />
    
    <path
        id="path-A4"
        d="M 0.334693 0.724869 L 0.369143 0.721156 L 0.403117 0.714366 L 0.436244 0.704228 L 0.468053 0.690513 L 0.498075 0.673227"
        style="fill:none;stroke:#000000;stroke-width:0.002;stroke-linecap:round;stroke-linejoin:round;"
        inkscape:connector-curvature="0" />
    
    <path
        id="path-A5"
        d="M 0.334693 0.724869 L 0.369143 0.721156 L 0.403117 0.714366 L 0.436244 0.704228 L 0.468053 0.690513 L 0.498075 0.673227"
        style="fill:none;stroke:#000000;stroke-width:0.002;stroke-linecap:round;stroke-linejoin:round;"
        inkscape:connector-curvature="0" />
    
    <path
        id="path-A6"
        d="M 0.334693 0.724869 L 0.309646 0.723839 L 0.284639 0.722117 L 0.259786 0.718888 L 0.235302 0.713541 L 0.211418 0.705965 L 0.188363 0.696151 L 0.166355 0.684168 L 0.145579 0.670157 L 0.126168 0.654309 L 0.108193 0.636847 L 0.091677 0.617998 L 0.076600 0.597977 L 0.062918 0.576977 L 0.050572 0.555165 L 0.039497 0.532680 L 0.029634 0.509637 L 0.020937 0.486127 L 0.013381 0.462226 L 0.006987 0.437990 L 0.001933 0.413448 L 0.003345 0.454000 L 0.007440 0.494380 L 0.013923 0.534449 L 0.022796 0.574057 L 0.034150 0.613023 L 0.048117 0.651132 L 0.064837 0.688112 L 0.084445 0.723646 L 0.107029 0.757361 L 0.132612 0.788859 L 0.161119 0.817738 L 0.192355 0.843634 L 0.226028 0.866274 L 0.261760 0.885504 L 0.299147 0.901303 L 0.337762 0.913757 L 0.377266 0.923056 L 0.417341 0.929548 L 0.457659 0.934222 L 0.498075 0.938069"
        style="fill:none;stroke:#000000;stroke-width:0.002;stroke-linecap:round;stroke-linejoin:round;"
        inkscape:connector-curvature="0" />
    
    <path
        id="path-A7"
        d="M 0.013923 0.534449 L 0.022796 0.574057"
        style="fill:none;stroke:#000000;stroke-width:0.002;stroke-linecap:round;stroke-linejoin:round;"
        inkscape:connector-curvature="0" />
    
    <path
        id="path-A8"
        d="M 0.062918 0.576977 L 0.076600 0.597977"
        style="fill:none;stroke:#000000;stroke-width:0.002;stroke-linecap:round;stroke-linejoin:round;"
        inkscape:connector-curvature="0" />
    
    <path
        id="path-A9"
        d="M 0.649483 0.295698 L 0.643143 0.283392 L 0.636750 0.271113 L 0.630251 0.258890 L 0.623618 0.246740 L 0.616855 0.234661 L 0.609966 0.222654 L 0.602956 0.210717 L 0.595830 0.198849 L 0.588591 0.187049 L 0.581243 0.175318 L 0.573787 0.163654 L 0.566227 0.152057 L 0.558565 0.140529 L 0.550800 0.129070 L 0.542931 0.117678 L 0.534961 0.106359 L 0.526886 0.095116 L 0.518699 0.083953 L 0.510391 0.072883 L 0.501925 0.061931"
        style="fill:none;stroke:#000000;stroke-width:0.002;stroke-linecap:round;stroke-linejoin:round;"
        inkscape:connector-curvature="0" />
    
    <path
        id="path-A10"
        d="M 0.649465 0.295707 L 0.648087 0.380151 L 0.634623 0.463534 L 0.607348 0.543415 L 0.563192 0.615238 L 0.501925 0.673227"
        style="fill:none;stroke:#000000;stroke-width:0.002;stroke-linecap:round;stroke-linejoin:round;"
        inkscape:connector-curvature="0" />
    
    <path
        id="path-A11"
        d="M 0.665305 0.724869 L 0.648042 0.723366 L 0.630856 0.721156 L 0.613788 0.718165 L 0.596882 0.714366 L 0.580186 0.709730 L 0.563756 0.704228 L 0.547653 0.697829 L 0.531947 0.690514 L 0.516709 0.682265 L 0.501925 0.673227"
        style="fill:none;stroke:#000000;stroke-width:0.002;stroke-linecap:round;stroke-linejoin:round;"
        inkscape:connector-curvature="0" />
    
    <path
        id="path-A12"
        d="M 0.501925 0.913105 L 0.553706 0.865695 L 0.601148 0.813931 L 0.643633 0.758037 L 0.679777 0.697867 L 0.706596 0.633042 L 0.720391 0.564321 L 0.717411 0.494318 L 0.701770 0.425902 L 0.678337 0.359719 L 0.649483 0.295698"
        style="fill:none;stroke:#000000;stroke-width:0.002;stroke-linecap:round;stroke-linejoin:round;"
        inkscape:connector-curvature="0" />
    
    <path
        id="path-A13"
        d="M 0.998066 0.413448 L 0.993013 0.437990 L 0.986619 0.462226 L 0.979063 0.486127 L 0.970365 0.509637 L 0.960503 0.532680 L 0.949428 0.555165 L 0.937081 0.576977 L 0.923400 0.597977 L 0.908323 0.617999 L 0.891807 0.636848 L 0.873832 0.654310 L 0.854420 0.670157 L 0.833644 0.684169 L 0.811637 0.696152 L 0.788581 0.705965 L 0.764697 0.713541 L 0.740213 0.718888 L 0.715360 0.722117 L 0.690352 0.723839 L 0.665305 0.724869"
        style="fill:none;stroke:#000000;stroke-width:0.002;stroke-linecap:round;stroke-linejoin:round;"
        inkscape:connector-curvature="0" />
    
    <path
        id="path-A14"
        d="M 0.501925 0.938069 L 0.542341 0.934222 L 0.582659 0.929548 L 0.622734 0.923055 L 0.662237 0.913757 L 0.700853 0.901303 L 0.738240 0.885504 L 0.773971 0.866274 L 0.807644 0.843633 L 0.838881 0.817738 L 0.867388 0.788859 L 0.892971 0.757361 L 0.915555 0.723646 L 0.935163 0.688112 L 0.951883 0.651132 L 0.965850 0.613023 L 0.977204 0.574057 L 0.986077 0.534449 L 0.992560 0.494380 L 0.996654 0.454000 L 0.998066 0.413448"
        style="fill:none;stroke:#000000;stroke-width:0.002;stroke-linecap:round;stroke-linejoin:round;"
        inkscape:connector-curvature="0" />
    
    <path
        id="path-B1"
        d="M 0.035187 0.061934 L 0.042615 0.085224 L 0.054788 0.106453 L 0.070730 0.125025 L 0.089672 0.140529 L 0.110823 0.152872 L 0.133459 0.162223 L 0.157027 0.168908 L 0.181134 0.173291 L 0.205516 0.175723 L 0.230010 0.176523 L 0.254506 0.175782 L 0.278897 0.173413 L 0.303015 0.169096 L 0.326599 0.162471 L 0.349253 0.153161 L 0.370405 0.140827 L 0.389316 0.125284 L 0.405162 0.106633 L 0.417156 0.085304 L 0.424325 0.061934"
        style="fill:none;stroke:#000000;stroke-width:0.002;stroke-linecap:round;stroke-linejoin:round;"
        inkscape:connector-curvature="0" />
    
    <path
        id="path-B2"
        d="M 0.026552 0.177280 L 0.067339 0.177280 L 0.108126 0.177280 L 0.148912 0.177280 L 0.189699 0.177280 L 0.230485 0.177280 L 0.271272 0.177280 L 0.312059 0.177280 L 0.352845 0.177280 L 0.393632 0.177280 L 0.434419 0.177280"
        style="fill:none;stroke:#000000;stroke-width:0.002;stroke-linecap:round;stroke-linejoin:round;"
        inkscape:connector-curvature="0" />
    
    <path
        id="path-B3"
        d="M 0.231014 0.118524 L 0.230762 0.146499 L 0.230510 0.174474 L 0.230259 0.202449 L 0.230007 0.230424 L 0.229756 0.258399"
        style="fill:none;stroke:#000000;stroke-width:0.002;stroke-linecap:round;stroke-linejoin:round;"
        inkscape:connector-curvature="0" />
    
    <path
        id="path-B4"
        d="M 0.084365 0.258399 L 0.142521 0.258399 L 0.200677 0.258399 L 0.258834 0.258399 L 0.316990 0.258399 L 0.375147 0.258399"
        style="fill:none;stroke:#000000;stroke-width:0.002;stroke-linecap:round;stroke-linejoin:round;"
        inkscape:connector-curvature="0" />
    
    <path
        id="path-B5"
        d="M 0.084365 0.258399 L 0.142521 0.258399 L 0.200677 0.258399 L 0.258834 0.258399 L 0.316990 0.258399 L 0.375147 0.258399"
        style="fill:none;stroke:#000000;stroke-width:0.002;stroke-linecap:round;stroke-linejoin:round;"
        inkscape:connector-curvature="0" />
    
    <path
        id="path-B6"
        d="M 0.457666 0.929730 L 0.441787 0.900953 L 0.426667 0.871762 L 0.412209 0.842241 L 0.398405 0.812407 L 0.385286 0.782266 L 0.372899 0.751814 L 0.361318 0.721050 L 0.350634 0.689963 L 0.340965 0.658545 L 0.332466 0.626792 L 0.325334 0.594704 L 0.319816 0.562299 L 0.315895 0.529645 L 0.314691 0.496838 L 0.317025 0.464060 L 0.322347 0.431631 L 0.330317 0.399748 L 0.340615 0.368537 L 0.352887 0.338044 L 0.106624 0.338044 L 0.118326 0.366995 L 0.128264 0.396595 L 0.136130 0.426810 L 0.141650 0.457539 L 0.144535 0.488625 L 0.144427 0.519826 L 0.141234 0.550895 L 0.136594 0.581779 L 0.130438 0.612393 L 0.122953 0.642711 L 0.114331 0.672724 L 0.104719 0.702437 L 0.094237 0.731854 L 0.082978 0.760983 L 0.071014 0.789828 L 0.058399 0.818398 L 0.045175 0.846689 L 0.031361 0.874698 L 0.016950 0.902404 L 0.001846 0.929730"
        style="fill:none;stroke:#000000;stroke-width:0.002;stroke-linecap:round;stroke-linejoin:round;"
        inkscape:connector-curvature="0" />
    
    <path
        id="path-B7"
        d="M 0.140589 0.449589 L 0.316072 0.449589"
        style="fill:none;stroke:#000000;stroke-width:0.002;stroke-linecap:round;stroke-linejoin:round;"
        inkscape:connector-curvature="0" />
    
    <path
        id="path-B8"
        d="M 0.140537 0.561134 L 0.318974 0.561134"
        style="fill:none;stroke:#000000;stroke-width:0.002;stroke-linecap:round;stroke-linejoin:round;"
        inkscape:connector-curvature="0" />
    
    <path
        id="path-B9"
        d="M 0.599653 0.061934 L 0.607080 0.085224 L 0.619253 0.106454 L 0.635195 0.125025 L 0.654138 0.140529 L 0.675288 0.152871 L 0.697924 0.162223 L 0.721492 0.168908 L 0.745599 0.173291 L 0.769982 0.175723 L 0.794476 0.176523 L 0.818972 0.175782 L 0.843363 0.173413 L 0.867480 0.169096 L 0.891065 0.162471 L 0.913718 0.153161 L 0.934870 0.140827 L 0.953782 0.125284 L 0.969628 0.106633 L 0.981622 0.085304 L 0.988791 0.061934"
        style="fill:none;stroke:#000000;stroke-width:0.002;stroke-linecap:round;stroke-linejoin:round;"
        inkscape:connector-curvature="0" />
    
    <path
        id="path-B10"
        d="M 0.590289 0.177280 L 0.671862 0.177280 L 0.753435 0.177280 L 0.835008 0.177280 L 0.916581 0.177280 L 0.998155 0.177280"
        style="fill:none;stroke:#000000;stroke-width:0.002;stroke-linecap:round;stroke-linejoin:round;"
        inkscape:connector-curvature="0" />
    
    <path
        id="path-B11"
        d="M 0.590271 0.561151 L 0.621872 0.535753 L 0.641667 0.500148 L 0.654490 0.461382 L 0.663384 0.421512 L 0.669723 0.381151 L 0.674225 0.340541 L 0.677304 0.299799 L 0.679208 0.258984 L 0.680069 0.218135 L 0.679864 0.177280"
        style="fill:none;stroke:#000000;stroke-width:0.002;stroke-linecap:round;stroke-linejoin:round;"
        inkscape:connector-curvature="0" />
    
    <path
        id="path-B12"
        d="M 0.851133 0.561151 L 0.882734 0.535754 L 0.902529 0.500149 L 0.915352 0.461382 L 0.924245 0.421512 L 0.930584 0.381151 L 0.935087 0.340542 L 0.938165 0.299799 L 0.940069 0.258984 L 0.940931 0.218135 L 0.940724 0.177280"
        style="fill:none;stroke:#000000;stroke-width:0.002;stroke-linecap:round;stroke-linejoin:round;"
        inkscape:connector-curvature="0" />
    
    <path
        id="path-B13"
        d="M 0.674934 0.338044 L 0.686635 0.366995 L 0.696573 0.396595 L 0.704439 0.426810 L 0.709959 0.457539 L 0.712844 0.488625 L 0.712736 0.519826 L 0.709543 0.550895 L 0.704903 0.581779 L 0.698747 0.612393 L 0.691262 0.642710 L 0.682639 0.672724 L 0.673028 0.702437 L 0.662546 0.731854 L 0.651287 0.760983 L 0.639323 0.789828 L 0.626708 0.818398 L 0.613484 0.846689 L 0.599670 0.874698 L 0.585260 0.902404 L 0.570155 0.929730"
        style="fill:none;stroke:#000000;stroke-width:0.002;stroke-linecap:round;stroke-linejoin:round;"
        inkscape:connector-curvature="0" />
    
    <path
        id="path-B14"
        d="M 0.884480 0.346380 L 0.872779 0.375331 L 0.862842 0.404931 L 0.854975 0.435146 L 0.849455 0.465875 L 0.846570 0.496960 L 0.846678 0.528162 L 0.849871 0.559231 L 0.854511 0.590115 L 0.860667 0.620729 L 0.868152 0.651046 L 0.876774 0.681060 L 0.886386 0.710773 L 0.896867 0.740189 L 0.908127 0.769319 L 0.920091 0.798163 L 0.932705 0.826734 L 0.945929 0.855026 L 0.959743 0.883034 L 0.974154 0.910740 L 0.989259 0.938066"
        style="fill:none;stroke:#000000;stroke-width:0.002;stroke-linecap:round;stroke-linejoin:round;"
        inkscape:connector-curvature="0" />
    </svg>