<?xml version="1.0" encoding="UTF-8" standalone="no"?>
<svg
   xmlns:dc="http://purl.org/dc/elements/1.1/"
   xmlns:cc="http://creativecommons.org/ns#"
   xmlns:rdf="http://www.w3.org/1999/02/22-rdf-syntax-ns#"
   xmlns:svg="http://www.w3.org/2000/svg"
   xmlns="http://www.w3.org/2000/svg"
   xmlns:sodipodi="http://sodipodi.sourceforge.net/DTD/sodipodi-0.dtd"
   xmlns:inkscape="http://www.inkscape.org/namespaces/inkscape"
   width="1"
   height="1"
   viewBox="0 0 1 1"
   version="1.1"
   id="svg8"
   inkscape:version="1.3 (1:1.3+202307231459+0e150ed6c4)"
   sodipodi:docname="drawing.svg">
  <defs
     id="defs2" />
  <sodipodi:namedview
     id="base"
     pagecolor="#ffffff"
     bordercolor="#666666"
     borderopacity="1.0"
     inkscape:pageopacity="0.0"
     inkscape:pageshadow="2"
     inkscape:zoom="1600"
     inkscape:cx="0.5"
     inkscape:cy="0.5"
     inkscape:document-units="px"
     inkscape:current-layer="layer1"
     showgrid="false"
     inkscape:window-width="1920"
     inkscape:window-height="1016"
     inkscape:window-x="0"
     inkscape:window-y="0"
     inkscape:window-maximized="1"
     units="px" />
  <metadata
     id="metadata5">
    <rdf:RDF>
      <cc:Work
         rdf:about="">
        <dc:format>image/svg+xml</dc:format>
        <dc:type
           rdf:resource="http://purl.org/dc/dcmitype/StillImage" />
        <dc:title></dc:title>
      </cc:Work>
    </rdf:RDF>
  </metadata>
  <g
     inkscape:label="Layer 1"
     inkscape:groupmode="layer"
     id="layer1">
    <!-- 原始路径数据转换为Inkscape兼容格式 -->







<path d="M 0.350516 0.000000 L 0.356857 0.000000 L 0.363250 0.000000 L 0.369748 0.000000 L 0.376382 0.000000 L 0.383145 0.000000 L 0.390034 0.000000 L 0.397044 0.000000 L 0.404170 0.000000 L 0.411409 0.000000 L 0.418757 0.000000 L 0.426213 0.000000 L 0.433773 0.000000 L 0.441435 0.000000 L 0.449200 0.000000 L 0.457068 0.000000 L 0.465039 0.000000 L 0.473114 0.000000 L 0.481301 0.000000 L 0.489609 0.000000 L 0.498075 0.000000" fill="none" stroke="black"/>
<path d="M 0.498075 0.000000 L 0.446252 0.000000 L 0.398735 0.000000 L 0.356188 0.000000 L 0.320236 0.000000 L 0.293411 0.000000 L 0.279610 0.000000 L 0.282587 0.000000 L 0.298227 0.000000 L 0.321662 0.000000 L 0.350516 0.000000" fill="none" stroke="black"/>
<path d="M 0.350534 0.000000 L 0.351913 0.000000 L 0.365377 0.000000 L 0.392652 0.000000 L 0.436808 0.000000 L 0.498075 0.000000" fill="none" stroke="black"/>
<path d="M 0.334693 0.000000 L 0.369143 0.000000 L 0.403117 0.000000 L 0.436244 0.000000 L 0.468053 0.000000 L 0.498075 0.000000" fill="none" stroke="black"/>
<path d="M 0.334693 0.000000 L 0.369143 0.000000 L 0.403117 0.000000 L 0.436244 0.000000 L 0.468053 0.000000 L 0.498075 0.000000" fill="none" stroke="black"/>
<path d="M 0.334693 0.000000 L 0.309646 0.000000 L 0.284639 0.000000 L 0.259786 0.000000 L 0.235302 0.000000 L 0.211418 0.000000 L 0.188363 0.000000 L 0.166355 0.000000 L 0.145579 0.000000 L 0.126168 0.000000 L 0.108193 0.000000 L 0.091677 0.000000 L 0.076600 0.000000 L 0.062918 0.000000 L 0.050572 0.000000 L 0.039497 0.000000 L 0.029634 0.000000 L 0.020937 0.000000 L 0.013381 0.000000 L 0.006987 0.000000 L 0.001933 0.000000 L 0.003345 0.000000 L 0.007440 0.000000 L 0.013923 0.000000 L 0.022796 0.000000 L 0.034150 0.000000 L 0.048117 0.000000 L 0.064837 0.000000 L 0.084445 0.000000 L 0.107029 0.000000 L 0.132612 0.000000 L 0.161119 0.000000 L 0.192355 0.000000 L 0.226028 0.000000 L 0.261760 0.000000 L 0.299147 0.000000 L 0.337762 0.000000 L 0.377266 0.000000 L 0.417341 0.000000 L 0.457659 0.000000 L 0.498075 0.000000" fill="none" stroke="black"/>
<path d="M 0.013923 0.000000 L 0.022796 0.000000" fill="none" stroke="black"/>
<path d="M 0.062918 0.000000 L 0.076600 0.000000" fill="none" stroke="black"/>
<path d="M 0.649483 0.000000 L 0.643143 0.000000 L 0.636750 0.000000 L 0.630251 0.000000 L 0.623618 0.000000 L 0.616855 0.000000 L 0.609966 0.000000 L 0.602956 0.000000 L 0.595830 0.000000 L 0.588591 0.000000 L 0.581243 0.000000 L 0.573787 0.000000 L 0.566227 0.000000 L 0.558565 0.000000 L 0.550800 0.000000 L 0.542931 0.000000 L 0.534961 0.000000 L 0.526886 0.000000 L 0.518699 0.000000 L 0.510391 0.000000 L 0.501925 0.000000" fill="none" stroke="black"/>
<path d="M 0.649465 0.000000 L 0.648087 0.000000 L 0.634623 0.000000 L 0.607348 0.000000 L 0.563192 0.000000 L 0.501925 0.000000" fill="none" stroke="black"/>
<path d="M 0.665305 0.000000 L 0.648042 0.000000 L 0.630856 0.000000 L 0.613788 0.000000 L 0.596882 0.000000 L 0.580186 0.000000 L 0.563756 0.000000 L 0.547653 0.000000 L 0.531947 0.000000 L 0.516709 0.000000 L 0.501925 0.000000" fill="none" stroke="black"/>
<path d="M 0.501925 0.000000 L 0.553706 0.000000 L 0.601148 0.000000 L 0.643633 0.000000 L 0.679777 0.000000 L 0.706596 0.000000 L 0.720391 0.000000 L 0.717411 0.000000 L 0.701770 0.000000 L 0.678337 0.000000 L 0.649483 0.000000" fill="none" stroke="black"/>
<path d="M 0.998066 0.000000 L 0.993013 0.000000 L 0.986619 0.000000 L 0.979063 0.000000 L 0.970365 0.000000 L 0.960503 0.000000 L 0.949428 0.000000 L 0.937081 0.000000 L 0.923400 0.000000 L 0.908323 0.000000 L 0.891807 0.000000 L 0.873832 0.000000 L 0.854420 0.000000 L 0.833644 0.000000 L 0.811637 0.000000 L 0.788581 0.000000 L 0.764697 0.000000 L 0.740213 0.000000 L 0.715360 0.000000 L 0.690352 0.000000 L 0.665305 0.000000" fill="none" stroke="black"/>
<path d="M 0.501925 0.000000 L 0.542341 0.000000 L 0.582659 0.000000 L 0.622734 0.000000 L 0.662237 0.000000 L 0.700853 0.000000 L 0.738240 0.000000 L 0.773971 0.000000 L 0.807644 0.000000 L 0.838881 0.000000 L 0.867388 0.000000 L 0.892971 0.000000 L 0.915555 0.000000 L 0.935163 0.000000 L 0.951883 0.000000 L 0.965850 0.000000 L 0.977204 0.000000 L 0.986077 0.000000 L 0.992560 0.000000 L 0.996654 0.000000 L 0.998066 0.000000" fill="none" stroke="black"/>

<path d="M 0.035187 0.000000 L 0.042615 0.000000 L 0.054788 0.000000 L 0.070730 0.000000 L 0.089672 0.000000 L 0.110823 0.000000 L 0.133459 0.000000 L 0.157027 0.000000 L 0.181134 0.000000 L 0.205516 0.000000 L 0.230010 0.000000 L 0.254506 0.000000 L 0.278897 0.000000 L 0.303015 0.000000 L 0.326599 0.000000 L 0.349253 0.000000 L 0.370405 0.000000 L 0.389316 0.000000 L 0.405162 0.000000 L 0.417156 0.000000 L 0.424325 0.000000" fill="none" stroke="black"/>
<path d="M 0.026552 0.000000 L 0.067339 0.000000 L 0.108126 0.000000 L 0.148912 0.000000 L 0.189699 0.000000 L 0.230485 0.000000 L 0.271272 0.000000 L 0.312059 0.000000 L 0.352845 0.000000 L 0.393632 0.000000 L 0.434419 0.000000" fill="none" stroke="black"/>
<path d="M 0.231014 0.000000 L 0.230762 0.000000 L 0.230510 0.000000 L 0.230259 0.000000 L 0.230007 0.000000 L 0.229756 0.000000" fill="none" stroke="black"/>
<path d="M 0.084365 0.000000 L 0.142521 0.000000 L 0.200677 0.000000 L 0.258834 0.000000 L 0.316990 0.000000 L 0.375147 0.000000" fill="none" stroke="black"/>
<path d="M 0.084365 0.000000 L 0.142521 0.000000 L 0.200677 0.000000 L 0.258834 0.000000 L 0.316990 0.000000 L 0.375147 0.000000" fill="none" stroke="black"/>
<path d="M 0.106624 0.000000 L 0.118326 0.000000 L 0.128264 0.000000 L 0.136130 0.000000 L 0.141650 0.000000 L 0.144535 0.000000 L 0.144427 0.000000 L 0.141234 0.000000 L 0.136594 0.000000 L 0.130438 0.000000 L 0.122953 0.000000 L 0.114331 0.000000 L 0.104719 0.000000 L 0.094237 0.000000 L 0.082978 0.000000 L 0.071014 0.000000 L 0.058399 0.000000 L 0.045175 0.000000 L 0.031361 0.000000 L 0.016950 0.000000 L 0.001846 0.000000" fill="none" stroke="black"/>
<path d="M 0.352887 0.000000 L 0.340615 0.000000 L 0.330317 0.000000 L 0.322347 0.000000 L 0.317025 0.000000 L 0.314691 0.000000 L 0.315895 0.000000 L 0.319816 0.000000 L 0.325334 0.000000 L 0.332466 0.000000 L 0.340965 0.000000 L 0.350634 0.000000 L 0.361318 0.000000 L 0.372899 0.000000 L 0.385286 0.000000 L 0.398405 0.000000 L 0.412209 0.000000 L 0.426667 0.000000 L 0.441787 0.000000 L 0.457666 0.000000" fill="none" stroke="black"/>
<path d="M 0.140589 0.000000 L 0.316072 0.000000" fill="none" stroke="black"/>
<path d="M 0.140537 0.000000 L 0.318974 0.000000" fill="none" stroke="black"/>
<path d="M 0.599653 0.000000 L 0.607080 0.000000 L 0.619253 0.000000 L 0.635195 0.000000 L 0.654138 0.000000 L 0.675288 0.000000 L 0.697924 0.000000 L 0.721492 0.000000 L 0.745599 0.000000 L 0.769982 0.000000 L 0.794476 0.000000 L 0.818972 0.000000 L 0.843363 0.000000 L 0.867480 0.000000 L 0.891065 0.000000 L 0.913718 0.000000 L 0.934870 0.000000 L 0.953782 0.000000 L 0.969628 0.000000 L 0.981622 0.000000 L 0.988791 0.000000" fill="none" stroke="black"/>
<path d="M 0.590289 0.000000 L 0.671862 0.000000 L 0.753435 0.000000 L 0.835008 0.000000 L 0.916581 0.000000 L 0.998155 0.000000" fill="none" stroke="black"/>
<path d="M 0.590271 0.000000 L 0.621872 0.000000 L 0.641667 0.000000 L 0.654490 0.000000 L 0.663384 0.000000 L 0.669723 0.000000 L 0.674225 0.000000 L 0.677304 0.000000 L 0.679208 0.000000 L 0.680069 0.000000 L 0.679864 0.000000" fill="none" stroke="black"/>
<path d="M 0.851133 0.000000 L 0.882734 0.000000 L 0.902529 0.000000 L 0.915352 0.000000 L 0.924245 0.000000 L 0.930584 0.000000 L 0.935087 0.000000 L 0.938165 0.000000 L 0.940069 0.000000 L 0.940931 0.000000 L 0.940724 0.000000" fill="none" stroke="black"/>
<path d="M 0.674934 0.000000 L 0.686635 0.000000 L 0.696573 0.000000 L 0.704439 0.000000 L 0.709959 0.000000 L 0.712844 0.000000 L 0.712736 0.000000 L 0.709543 0.000000 L 0.704903 0.000000 L 0.698747 0.000000 L 0.691262 0.000000 L 0.682639 0.000000 L 0.673028 0.000000 L 0.662546 0.000000 L 0.651287 0.000000 L 0.639323 0.000000 L 0.626708 0.000000 L 0.613484 0.000000 L 0.599670 0.000000 L 0.585260 0.000000 L 0.570155 0.000000" fill="none" stroke="black"/>
<path d="M 0.884480 0.000000 L 0.872779 0.000000 L 0.862842 0.000000 L 0.854975 0.000000 L 0.849455 0.000000 L 0.846570 0.000000 L 0.846678 0.000000 L 0.849871 0.000000 L 0.854511 0.000000 L 0.860667 0.000000 L 0.868152 0.000000 L 0.876774 0.000000 L 0.886386 0.000000 L 0.896867 0.000000 L 0.908127 0.000000 L 0.920091 0.000000 L 0.932705 0.000000 L 0.945929 0.000000 L 0.959743 0.000000 L 0.974154 0.000000 L 0.989259 0.000000" fill="none" stroke="black"/>
  </g>
</svg>
