<?xml version="1.0" standalone="no"?>
<!DOCTYPE svg PUBLIC "-//W3C//DTD SVG 20010904//EN"
 "http://www.w3.org/TR/2001/REC-SVG-20010904/DTD/svg10.dtd">
<svg version="1.0" xmlns="http://www.w3.org/2000/svg"
 width="674.000000pt" height="1280.000000pt" viewBox="0 0 674.000000 1280.000000"
 preserveAspectRatio="xMidYMid meet">
<metadata>
Created by potrace 1.15, written by Peter Selinger 2001-2017
</metadata>
<g transform="translate(0.000000,1280.000000) scale(0.100000,-0.100000)"
fill="#000000" stroke="none">
<path d="M144 12778 c-9 -31 -16 -192 -15 -361 2 -148 -22 -296 -91 -562 -40
-156 -43 -260 -9 -360 12 -38 30 -90 38 -115 109 -324 318 -934 339 -987 55
-142 92 -189 225 -289 40 -29 64 -59 93 -111 86 -159 291 -398 641 -749 264
-266 408 -391 504 -443 132 -70 187 -130 549 -604 71 -94 163 -272 189 -367
12 -44 17 -100 17 -175 -1 -98 -4 -120 -33 -200 -18 -49 -53 -130 -77 -179
-45 -90 -121 -206 -134 -206 -4 0 -26 25 -49 55 -63 83 -201 220 -328 324 -62
51 -113 96 -113 100 0 11 -190 197 -240 234 -97 73 -178 104 -308 116 -77 7
-105 15 -178 50 -90 43 -104 47 -104 31 0 -5 22 -21 49 -35 27 -13 53 -29 56
-35 4 -6 -38 12 -94 39 -55 28 -105 51 -110 51 -5 0 -11 -7 -15 -15 -5 -15 4
-23 86 -68 37 -21 30 -30 -37 -42 -69 -12 -161 -62 -199 -109 -41 -49 -107
-184 -131 -268 l-16 -57 -87 -3 c-49 -2 -87 -7 -87 -13 0 -5 35 -19 79 -29
l78 -19 -7 -76 c-8 -89 -18 -101 -87 -101 -26 0 -48 -4 -48 -8 0 -11 34 -42
46 -42 5 0 25 -5 45 -10 36 -10 37 -13 53 -81 23 -100 24 -98 -36 -101 -54 -3
-66 -18 -25 -29 12 -4 41 -12 64 -18 42 -11 43 -13 64 -84 22 -75 44 -215 34
-225 -3 -3 -44 -12 -92 -21 -47 -9 -88 -21 -90 -27 -6 -17 47 -24 121 -17 l66
6 14 -34 c27 -64 25 -72 -21 -93 -24 -11 -43 -23 -43 -28 0 -4 24 -8 53 -8
l52 0 19 -46 c38 -93 76 -119 228 -160 93 -25 134 -42 124 -51 -3 -3 -31 -11
-62 -17 -69 -14 -91 -43 -25 -32 22 3 41 4 41 1 0 -2 -18 -28 -39 -56 -22 -29
-45 -62 -52 -75 -20 -39 0 -41 28 -4 15 19 52 61 83 93 73 73 95 75 220 12 50
-25 90 -49 90 -53 0 -4 -33 -51 -74 -105 -84 -112 -114 -163 -102 -174 4 -4
30 19 58 52 69 80 178 185 193 185 15 0 45 -32 45 -49 0 -6 -12 -29 -26 -51
-36 -54 -20 -65 21 -15 19 22 36 37 39 35 2 -3 15 -25 29 -48 l25 -44 -49
-103 c-27 -57 -49 -107 -49 -110 0 -21 34 6 83 66 l58 70 51 -72 51 -72 -23
-42 c-34 -62 -22 -76 27 -32 l40 37 44 -16 c33 -12 63 -14 120 -10 l76 6 32
-122 c68 -257 152 -475 302 -787 l79 -164 -44 -181 c-24 -99 -54 -233 -66
-296 -32 -174 -53 -220 -248 -539 -133 -217 -156 -335 -107 -541 27 -109 28
-119 17 -208 -7 -51 -26 -159 -44 -239 -25 -116 -36 -150 -55 -166 -31 -28
-46 -79 -48 -163 -1 -70 -2 -71 -46 -110 -24 -22 -61 -52 -81 -67 -20 -15 -40
-36 -43 -47 -4 -14 -15 -20 -36 -20 -37 0 -83 -23 -103 -52 -10 -14 -16 -44
-16 -79 0 -76 47 -168 164 -321 50 -66 103 -138 118 -161 51 -77 99 -360 101
-599 2 -139 3 -148 26 -172 49 -52 134 -41 206 25 101 93 118 208 129 879 2
144 9 245 20 305 9 50 21 114 26 143 5 30 30 104 56 165 36 89 237 597 334
847 l18 45 11 -45 c7 -25 21 -74 32 -110 23 -71 276 -736 371 -973 74 -185 87
-264 70 -404 -10 -76 -10 -122 -1 -201 9 -77 9 -119 0 -172 -16 -100 -14 -120
19 -217 17 -48 28 -94 25 -102 -2 -9 -9 -62 -15 -119 -18 -185 18 -318 117
-423 124 -133 244 -142 368 -28 114 105 156 312 96 467 -25 64 -47 205 -111
702 -18 142 -29 180 -83 300 l-52 115 -6 545 c-6 588 -2 551 -63 729 -14 40
-30 110 -36 155 -14 110 -13 365 2 514 15 155 4 240 -50 383 -37 97 -82 281
-82 335 0 13 24 61 54 106 111 172 233 454 315 736 16 53 26 72 39 72 33 0 96
-22 108 -38 16 -22 245 -21 384 2 76 13 129 16 191 11 74 -6 87 -5 92 9 5 12
20 16 58 16 48 0 55 -3 89 -40 45 -49 63 -53 48 -9 -6 16 -9 32 -6 34 2 2 35
9 72 15 84 13 153 45 240 110 37 28 73 50 81 50 8 0 54 -11 102 -25 48 -14
120 -28 160 -32 64 -5 73 -4 73 11 0 11 -9 16 -27 16 -37 1 -235 83 -247 103
-8 12 -4 22 14 42 21 22 30 25 62 20 23 -4 38 -3 38 3 0 6 9 8 20 5 28 -8 25
6 -11 43 l-31 32 42 64 c24 34 75 101 115 148 99 118 105 128 178 285 104 227
118 321 61 426 -45 82 -263 274 -371 327 -42 21 -50 28 -41 40 9 10 8 16 -3
23 -16 10 -78 29 -96 29 -28 0 -11 19 19 22 52 5 42 23 -20 36 -69 14 -318 15
-382 2 -25 -6 -132 -15 -238 -20 -106 -6 -201 -14 -210 -19 -10 -5 -78 -11
-152 -12 l-135 -3 -8 89 c-13 132 6 339 40 445 l28 85 -5 250 c-8 514 -10 477
37 580 56 124 66 159 67 240 0 88 -20 149 -86 257 -27 46 -52 86 -54 90 -14
23 187 -48 801 -281 88 -34 201 -72 252 -86 51 -13 111 -34 133 -45 105 -53
1019 -628 1057 -664 9 -8 5 -34 -16 -111 -24 -86 -29 -126 -35 -288 -6 -163
-5 -192 9 -213 22 -33 67 -32 94 2 18 23 21 41 21 120 0 55 4 96 11 99 15 10
19 3 29 -60 5 -31 20 -76 34 -99 22 -38 25 -54 26 -167 1 -68 -2 -145 -5 -171
-10 -63 1 -115 27 -129 18 -10 25 -8 40 11 10 12 18 36 18 53 l0 30 25 -27
c21 -23 28 -26 40 -16 8 7 15 19 15 26 0 16 12 18 26 4 7 -7 16 -6 27 2 17 14
16 34 -12 358 -26 286 -41 488 -41 536 0 86 -35 140 -220 329 -91 94 -203 212
-250 263 -94 105 -296 282 -368 324 -26 15 -83 42 -127 60 -44 17 -108 52
-142 77 -34 25 -185 109 -335 185 -150 76 -403 208 -563 292 -344 182 -529
268 -633 296 -115 31 -380 31 -472 0 -82 -27 -243 -30 -326 -6 -111 32 -210
143 -321 359 l-66 130 28 43 c23 35 29 58 36 130 4 48 17 125 29 172 17 64 23
117 24 216 l1 130 -42 86 c-99 199 -308 320 -578 335 -213 11 -398 -62 -561
-222 -63 -62 -90 -98 -120 -159 -38 -79 -39 -82 -43 -210 -5 -191 18 -273 109
-395 26 -36 51 -82 55 -102 4 -20 20 -58 35 -85 47 -79 253 -328 285 -343 40
-19 117 -26 154 -13 29 10 33 8 56 -22 28 -37 108 -203 103 -215 -8 -19 -163
-151 -177 -151 -9 0 -41 20 -71 45 -67 55 -167 105 -280 141 -141 44 -156 52
-230 135 -38 42 -154 155 -257 251 -103 95 -251 232 -328 305 l-141 131 -104
184 c-197 350 -482 863 -515 928 -30 60 -40 102 -36 156 0 13 18 32 49 51 40
25 67 58 164 204 125 190 179 284 172 304 -3 7 -16 17 -30 24 -44 20 -112 -26
-163 -111 -32 -54 -80 -92 -97 -77 -18 15 -17 52 4 115 14 40 32 64 93 120 41
38 106 87 143 108 75 44 96 67 96 109 0 34 -23 45 -53 23 -12 -9 -32 -23 -44
-32 -12 -8 -48 -22 -80 -31 -32 -8 -73 -24 -92 -36 -52 -31 -30 -1 73 103 77
77 88 93 88 123 0 66 -19 72 -78 27 -21 -16 -73 -53 -114 -82 -41 -28 -93 -69
-116 -90 l-43 -39 -7 46 c-3 26 -4 74 -1 106 3 33 1 76 -5 95 -18 66 -79 99
-94 52z"/>
</g>
</svg>
