<?xml version="1.0" standalone="no"?>
<!DOCTYPE svg PUBLIC "-//W3C//DTD SVG 20010904//EN"
 "http://www.w3.org/TR/2001/REC-SVG-20010904/DTD/svg10.dtd">
<svg version="1.0" xmlns="http://www.w3.org/2000/svg"
 width="1042.000000pt" height="1280.000000pt" viewBox="0 0 1042.000000 1280.000000"
 preserveAspectRatio="xMidYMid meet">
<metadata>
Created by potrace 1.15, written by Peter Selinger 2001-2017
</metadata>
<g transform="translate(0.000000,1280.000000) scale(0.100000,-0.100000)"
fill="#000000" stroke="none">
<path d="M134 12769 c3 -36 25 -57 118 -112 59 -35 59 -35 30 -42 -36 -7 -193
-109 -246 -159 -37 -35 -38 -37 -20 -51 10 -8 25 -15 32 -15 10 0 10 -5 1 -22
-9 -18 -8 -24 6 -34 21 -16 58 -4 95 30 14 13 52 36 86 50 50 23 67 26 95 18
l34 -9 -38 -8 c-27 -5 -46 -18 -65 -43 -27 -34 -39 -47 -97 -95 -26 -22 -28
-27 -15 -42 22 -26 62 -12 131 45 52 44 66 50 107 51 26 1 52 0 57 -1 6 -2 33
-8 62 -14 28 -6 54 -14 57 -17 3 -3 -29 -11 -72 -18 -79 -13 -118 -28 -146
-56 -21 -21 -20 -31 4 -55 25 -25 117 -27 197 -4 44 13 78 15 159 9 57 -4 104
-11 104 -17 0 -5 20 -64 44 -131 24 -67 72 -225 106 -352 100 -373 133 -472
222 -650 44 -87 132 -227 183 -290 18 -22 70 -101 115 -175 118 -194 197 -304
344 -480 245 -293 272 -337 327 -524 61 -210 153 -424 221 -516 10 -14 23 -59
30 -105 l11 -80 -56 -143 c-68 -172 -87 -241 -87 -318 0 -113 35 -200 130
-325 63 -82 89 -130 140 -251 38 -93 226 -422 280 -493 21 -27 55 -66 75 -85
20 -19 53 -60 72 -90 139 -217 327 -457 460 -588 51 -51 109 -116 127 -145 19
-29 41 -59 51 -67 9 -7 23 -29 30 -48 8 -18 26 -47 40 -63 32 -39 43 -84 50
-194 3 -50 7 -112 10 -140 3 -27 10 -111 15 -185 19 -247 87 -669 185 -1135
30 -143 68 -334 85 -425 57 -302 106 -490 165 -629 41 -97 54 -191 65 -461 5
-135 12 -324 16 -420 11 -296 -34 -776 -116 -1235 -27 -152 -27 -371 1 -520
31 -165 34 -268 14 -394 -16 -102 -16 -111 0 -167 9 -32 25 -90 35 -129 22
-84 62 -176 84 -194 22 -18 62 -1 78 34 7 17 19 25 35 25 33 0 63 17 63 37 0
9 11 26 25 39 32 30 32 59 -2 109 l-26 40 27 -25 c35 -32 61 -18 61 31 0 24 6
37 20 44 26 14 30 38 15 102 -12 47 -11 55 3 71 9 10 37 81 62 158 30 91 63
169 95 224 65 111 69 135 36 204 -28 57 -78 107 -161 159 -49 32 -50 33 -49
82 1 101 54 349 146 680 27 99 58 212 69 250 10 39 35 115 55 169 46 129 61
205 74 365 7 92 7 164 0 243 -12 126 -22 169 -85 368 -45 143 -66 249 -86 433
-13 115 -3 291 26 502 25 175 37 408 45 885 5 256 13 487 19 513 16 72 104
242 125 241 24 -3 39 28 71 146 16 58 31 108 34 112 3 3 58 14 121 23 202 28
350 63 742 174 540 154 522 149 643 166 178 26 349 72 467 126 59 27 111 49
116 49 5 0 47 23 93 51 178 110 310 156 494 174 39 4 144 21 235 37 91 16 244
40 340 53 96 13 258 38 360 54 259 42 358 52 485 49 100 -2 119 1 205 29 414
137 546 177 620 188 118 18 165 32 197 59 15 13 53 39 83 59 74 47 163 139
158 163 -1 11 -18 26 -35 34 -28 13 -32 19 -28 41 4 18 0 31 -15 44 -11 10
-20 24 -20 32 0 22 -48 39 -70 25 -15 -9 -19 -8 -23 9 -4 13 -14 19 -35 19
-17 0 -32 6 -36 15 -9 24 -58 17 -100 -15 -33 -25 -49 -30 -97 -30 -74 0 -184
-21 -394 -75 -93 -24 -201 -49 -240 -55 -122 -20 -201 -69 -261 -162 l-23 -36
-103 -7 c-170 -11 -700 34 -863 73 -94 22 -306 22 -438 -2 -185 -33 -312 -83
-465 -182 -45 -30 -104 -65 -130 -78 -120 -61 -353 -78 -707 -52 -121 9 -312
19 -425 23 -195 5 -213 4 -375 -23 -205 -35 -429 -41 -461 -13 -21 18 -25 19
-101 24 -50 3 -282 56 -428 97 -123 35 -318 118 -390 166 -80 54 -113 106
-122 194 -8 82 42 455 76 568 16 52 44 147 61 210 18 63 45 138 59 165 82 150
87 153 299 166 108 7 246 6 442 -2 166 -7 345 -8 430 -4 80 4 262 9 405 10
210 2 282 7 376 24 183 32 189 34 664 208 88 33 205 72 260 87 55 16 129 36
165 47 63 18 65 18 85 -1 11 -10 61 -34 110 -51 164 -59 249 -134 285 -251 21
-67 41 -94 75 -100 27 -4 31 31 11 83 -9 22 -16 54 -16 72 0 17 -11 55 -25 82
-39 79 -31 85 36 29 45 -37 91 -117 103 -175 9 -45 28 -68 57 -71 23 -3 24 -1
22 57 -2 57 -42 192 -67 224 -9 12 -7 13 7 8 10 -4 21 -7 23 -7 2 0 4 -5 4
-11 0 -6 13 -37 29 -68 16 -31 32 -71 35 -88 8 -35 31 -60 61 -65 18 -3 20 2
17 47 -5 103 -62 258 -108 294 -25 20 -25 21 -5 21 11 0 60 -11 107 -25 103
-30 145 -32 168 -7 15 18 15 20 -3 36 -11 10 -47 26 -80 36 -33 11 -71 26 -83
34 -13 7 -68 28 -123 46 -55 17 -113 36 -130 41 -16 6 -93 26 -170 44 -77 18
-179 43 -226 54 -109 26 -218 27 -340 2 -140 -29 -220 -39 -484 -61 -132 -11
-298 -29 -370 -40 -71 -10 -184 -26 -250 -35 -66 -9 -142 -23 -170 -31 -27 -8
-66 -14 -85 -14 -65 -1 -165 1 -225 5 -33 2 -179 6 -325 9 -215 5 -291 11
-405 31 -391 68 -400 69 -577 80 -53 3 -117 17 -200 43 -68 22 -158 47 -201
57 -66 15 -78 20 -83 41 -8 33 15 124 32 124 7 0 48 20 90 45 41 25 82 45 90
45 20 0 68 25 83 44 7 9 17 13 23 10 15 -9 36 15 44 49 7 31 7 32 16 8 4 -13
5 -33 2 -45 -6 -20 -6 -20 13 -3 12 10 49 73 83 141 56 110 63 131 66 192 4
80 19 91 41 29 9 -25 13 -60 9 -94 -6 -68 0 -61 25 29 21 78 19 96 -15 138
-12 15 -28 43 -36 62 -7 19 -31 71 -53 114 -35 71 -39 89 -44 175 -5 72 -13
116 -36 176 -26 71 -38 89 -111 160 -63 63 -100 90 -166 122 -47 23 -96 44
-110 48 -14 5 -41 21 -61 37 -35 28 -39 29 -108 22 -46 -4 -71 -3 -71 4 0 5
-11 13 -25 16 -13 3 -31 19 -40 34 -12 21 -15 22 -13 7 3 -26 -9 -45 -29 -45
-10 0 -14 6 -10 20 3 12 -4 29 -19 45 -18 20 -24 22 -24 10 0 -9 -4 -14 -9
-11 -5 3 -8 -2 -7 -11 2 -25 -19 -26 -33 0 -12 23 -55 33 -47 10 3 -7 1 -15
-4 -18 -6 -4 -10 -1 -10 4 0 6 -4 11 -10 11 -6 0 -11 -32 -12 -72 -1 -48 -3
-59 -5 -30 -4 44 -23 59 -23 18 0 -34 -25 -50 -72 -47 -39 2 -58 -9 -58 -34 1
-5 5 -2 11 8 14 23 41 22 62 -4 10 -11 17 -23 15 -25 -2 -2 -28 -6 -57 -9 -40
-4 -50 -2 -44 8 4 6 -11 -2 -32 -19 -22 -17 -46 -29 -52 -27 -30 11 -210 -134
-247 -197 -11 -20 -14 -30 -6 -25 10 6 12 4 7 -9 -4 -10 -7 -21 -7 -24 0 -4
-4 -1 -9 7 -7 11 -13 3 -22 -30 -7 -24 -13 -53 -14 -65 -1 -23 -37 -77 -64
-96 -20 -15 -41 -45 -23 -34 14 8 6 -41 -14 -94 -14 -35 -14 -35 5 -13 10 12
21 39 25 60 7 45 55 112 56 78 0 -11 -7 -42 -15 -69 -8 -27 -15 -68 -15 -91 0
-24 -6 -61 -14 -83 -10 -26 -11 -42 -4 -44 14 -5 30 -96 20 -116 -5 -10 -6
-43 -4 -76 l4 -58 30 6 30 6 -26 -46 c-15 -27 -19 -41 -10 -33 18 15 42 67 58
127 6 24 16 44 21 45 19 4 17 -44 -5 -115 -17 -57 -19 -76 -10 -98 9 -22 8
-33 -9 -61 -18 -32 -25 -57 -22 -86 2 -26 28 -12 47 25 10 21 36 53 57 71 44
40 50 27 6 -15 -42 -39 -61 -78 -53 -109 8 -34 17 -31 38 11 21 44 29 40 16
-7 -23 -78 -6 -92 27 -21 33 71 86 162 91 157 5 -4 -8 -30 -67 -142 -21 -41
-30 -69 -26 -83 9 -29 19 -25 38 15 14 30 20 34 35 26 13 -7 23 -6 30 1 8 8
12 8 12 2 0 -14 -25 -34 -77 -62 l-42 -23 -40 23 c-21 12 -47 38 -57 58 -10
19 -135 152 -277 296 -185 187 -268 277 -292 320 -18 32 -56 85 -84 117 -28
32 -61 77 -72 100 -12 23 -42 65 -68 93 -53 59 -97 119 -127 175 -12 21 -33
52 -48 69 -14 17 -26 42 -26 54 0 13 -19 52 -41 87 -23 35 -83 143 -134 239
-50 96 -140 254 -200 350 -142 228 -205 340 -270 475 -40 84 -68 127 -119 182
-63 68 -74 75 -254 163 -103 50 -196 96 -207 103 -54 31 -187 96 -221 107 -22
7 -66 28 -100 47 -78 42 -93 43 -90 2z m3219 -1468 c2 -10 1 -25 -4 -32 -7
-11 -9 -10 -9 4 0 9 -4 17 -9 17 -5 0 -7 9 -4 20 6 23 18 19 26 -9z m75 -4 c2
-10 -3 -17 -11 -17 -16 0 -30 24 -19 34 10 10 27 1 30 -17z m331 -94 c13 -10
35 -28 48 -40 13 -13 28 -23 32 -23 5 0 14 -7 21 -15 24 -29 -11 -17 -54 19
-23 18 -56 41 -73 50 -18 9 -33 19 -33 21 0 12 38 3 59 -12z m-515 -55 c-9
-14 -23 -9 -34 13 -9 17 -8 23 7 34 16 12 19 11 25 -12 4 -15 5 -30 2 -35z
m-271 -103 c-36 -45 -103 -100 -103 -84 0 7 -3 9 -7 5 -5 -4 -8 -11 -8 -16 0
-4 -20 -34 -43 -66 l-44 -59 8 40 c4 22 13 49 20 61 18 27 74 68 74 53 0 -6
24 14 53 45 58 62 94 77 50 21z m1138 -107 c31 -35 79 -142 84 -184 l5 -39
-17 40 c-9 22 -36 77 -58 123 -23 45 -39 82 -37 82 2 0 13 -10 23 -22z m-1071
8 c0 -2 -8 -10 -17 -17 -16 -13 -17 -12 -4 4 13 16 21 21 21 13z m-50 -112
c-17 -36 -34 -63 -37 -61 -9 9 17 84 38 111 35 44 34 21 -1 -50z m-240 -49
c-6 -15 -13 -25 -17 -22 -3 4 0 21 8 38 16 39 24 24 9 -16z m160 -55 c-16 -31
-23 -18 -8 15 7 15 14 23 16 17 2 -6 -2 -21 -8 -32z m-39 -67 c-8 -15 -10 -15
-11 -2 0 17 10 32 18 25 2 -3 -1 -13 -7 -23z m-101 4 c0 -7 -15 -31 -34 -53
-25 -30 -32 -44 -25 -56 6 -11 5 -19 -1 -23 -10 -6 -13 2 -13 35 0 13 62 110
70 110 2 0 3 -6 3 -13z m71 -187 c-12 -38 -21 -81 -21 -97 0 -16 -6 -35 -12
-42 -10 -11 -10 -13 0 -7 15 9 16 -8 2 -35 -12 -22 -32 -26 -24 -5 3 8 -4 24
-15 35 l-21 21 24 38 c14 20 29 57 35 81 5 24 14 48 20 54 6 6 11 22 11 37 0
14 4 36 8 50 6 21 7 18 10 -19 2 -24 -6 -73 -17 -111z m-140 -151 c-8 -20 -10
-13 -10 37 -1 34 2 77 7 95 6 28 7 22 10 -37 1 -38 -2 -81 -7 -95z m-21 51 c0
-5 -2 -10 -4 -10 -3 0 -8 5 -11 10 -3 6 -1 10 4 10 6 0 11 -4 11 -10z m36
-185 c-3 -9 0 -12 10 -8 20 8 18 -27 -3 -43 -10 -7 -21 -14 -25 -14 -10 0 -10
56 -1 89 5 20 7 21 15 7 5 -10 7 -23 4 -31z m143 -4 c8 -14 7 -22 -3 -30 -10
-9 -13 -5 -12 19 1 35 2 36 15 11z m-26 -138 c-15 -23 -18 -24 -21 -9 -2 10 2
22 10 27 24 16 29 9 11 -18z m894 -415 c-3 -8 -6 -5 -6 6 -1 11 2 17 5 13 3
-3 4 -12 1 -19z"/>
<path d="M2721 10864 c0 -11 3 -14 6 -6 3 7 2 16 -1 19 -3 4 -6 -2 -5 -13z"/>
<path d="M2610 10450 c-7 -28 -10 -53 -8 -55 3 -3 10 18 16 47 7 28 11 53 8
55 -2 2 -9 -19 -16 -47z"/>
<path d="M4286 10040 c-21 -27 -42 -50 -47 -50 -4 0 -13 -10 -20 -22 -16 -32
72 54 94 92 26 44 16 37 -27 -20z"/>
</g>
</svg>
