<?xml version="1.0" encoding="UTF-8" standalone="no"?>
<!-- Created with Inkscape (http://www.inkscape.org/) -->

<svg
   width="1024mm"
   height="1024mm"
   viewBox="0 0 1024 1024"
   version="1.1"
   id="svg1"
   xml:space="preserve"
   sodipodi:docname="qinghua-houdini.svg"
   inkscape:version="1.4.2 (ebf0e940, 2025-05-08)"
   inkscape:export-filename="logo/qinghua-logo1024.png"
   inkscape:export-xdpi="96"
   inkscape:export-ydpi="96"
   xmlns:inkscape="http://www.inkscape.org/namespaces/inkscape"
   xmlns:sodipodi="http://sodipodi.sourceforge.net/DTD/sodipodi-0.dtd"
   xmlns="http://www.w3.org/2000/svg"
   xmlns:svg="http://www.w3.org/2000/svg"><sodipodi:namedview
     id="namedview1"
     pagecolor="#ffffff"
     bordercolor="#000000"
     borderopacity="0.25"
     inkscape:showpageshadow="2"
     inkscape:pageopacity="0.0"
     inkscape:pagecheckerboard="0"
     inkscape:deskcolor="#d1d1d1"
     inkscape:document-units="mm"
     showguides="true"
     inkscape:zoom="0.1767767"
     inkscape:cx="-8377.8012"
     inkscape:cy="10091.828"
     inkscape:window-width="2192"
     inkscape:window-height="1353"
     inkscape:window-x="8"
     inkscape:window-y="25"
     inkscape:window-maximized="0"
     inkscape:current-layer="layer1" /><defs
     id="defs1" /><g
     inkscape:label="Layer 1"
     inkscape:groupmode="layer"
     id="layer1"><path
       id="path112"
       style="baseline-shift:baseline;display:inline;overflow:visible;vector-effect:none;fill:#ff0000;stroke-width:1;stroke-linecap:round;stroke-linejoin:round;enable-background:accumulate;stop-color:#000000"
       d="m 511.99955,1024.0007 c -0.20556,0 -0.41153,0 -0.61779,0.01 -1.64928,0.054 -3.28404,0.3257 -4.86149,0.8074 -3.57084,1.0909 -6.73044,3.2224 -9.07027,6.1187 0,0 -49.06957,60.7256 -100.38866,146.5239 -14.60861,24.4236 -29.16304,51.2045 -43.16694,78.9797 -1.52054,2.0375 -2.60512,4.3635 -3.18642,6.8342 -33.72357,68.0769 -62.35475,143.1279 -69.22141,215.694 -6.2095,65.6199 12.43084,128.1576 40.86418,183.3519 h 5.1e-4 c 0,0 24.03106,0.6411 41.82761,-1.4395 -30.64808,-54.6281 -51.39673,-116.398 -45.52651,-178.4336 3.93644,-41.6001 16.1678,-85.8737 32.89289,-129.531 0,0 10.94212,-33.7565 35.6758,-80.2884 13.43269,-26.7953 27.74501,-52.4825 41.92093,-76.1827 33.81093,-56.5271 65.27698,-99.9185 82.85757,-123.2116 z m 5.2e-4,0 v 49.2333 c 17.5806,23.2932 49.04663,66.6845 82.85757,123.2117 14.17591,23.7001 28.48824,49.3874 41.92093,76.1826 24.73368,46.5319 35.6758,80.2884 35.6758,80.2884 16.72508,43.6573 28.95644,87.9309 32.89289,129.5311 5.87021,62.0355 -14.87844,123.8055 -45.52652,178.4336 17.79655,2.0805 41.82761,1.4394 41.82761,1.4394 h 5.3e-4 c 28.43334,-55.1943 47.07367,-117.7319 40.86417,-183.3519 -6.86666,-72.5661 -35.49784,-147.6171 -69.2214,-215.6939 -0.58131,-2.4708 -1.66589,-4.7967 -3.18644,-6.8343 -14.0039,-27.7752 -28.55832,-54.5561 -43.16692,-78.9796 -51.3191,-85.7984 -100.38868,-146.524 -100.38868,-146.524 -2.33983,-2.8963 -5.49942,-5.0277 -9.07026,-6.1187 -1.57744,-0.4817 -3.21222,-0.7532 -4.86149,-0.8074 -0.20626,-0.01 -0.41222,-0.01 -0.61779,-0.01 z M 18.950301,1366.968 c -0.582121,0.5374 -1.130042,1.1119 -1.639614,1.72 -1.109639,1.1359 -2.068505,2.4083 -2.853292,3.7863 -0.65858,1.4403 -1.129358,2.9584 -1.400841,4.5175 -0.201367,0.4938 -0.380783,0.9955 -0.538543,1.5043 0.157765,-0.5088 0.337737,-1.0105 0.539065,-1.5043 0.271486,-1.5591 0.742248,-3.0772 1.40084,-4.5175 0.784825,-1.378 1.74371,-2.6504 2.853293,-3.7863 0.50959,-0.6081 1.057478,-1.1826 1.639613,-1.72 z m 986.098399,0 c 0.5821,0.5374 1.1302,1.1119 1.6397,1.72 1.1096,1.1359 2.0685,2.4083 2.8533,3.7863 0.6585,1.4403 1.1294,2.9584 1.4009,4.5175 0.2012,0.4938 0.3812,0.9955 0.539,1.5043 -0.1578,-0.5088 -0.3372,-1.0105 -0.5385,-1.5043 -0.2715,-1.5591 -0.7424,-3.0772 -1.4009,-4.5175 -0.7848,-1.378 -1.7436,-2.6504 -2.8533,-3.7863 -0.5095,-0.6081 -1.0575,-1.1826 -1.6396,-1.72 z m -992.53486,11.5421 c -0.155943,0.5042 -0.290726,1.0151 -0.402995,1.5312 0,0 -0.407443,10.235 0.339392,27.8505 -0.746723,-17.6155 -0.338871,-27.8505 -0.338871,-27.8505 0.112298,-0.5161 0.246536,-1.027 0.402474,-1.5312 z m 998.97186,0 c 0.156,0.5042 0.2903,1.0151 0.4026,1.5312 0,0 0.4078,10.235 -0.3389,27.8505 0.7468,-17.6155 0.3394,-27.8505 0.3394,-27.8505 -0.1123,-0.5161 -0.2471,-1.027 -0.4031,-1.5312 z M 33.034816,1544.2572 c 7.940776,30.4776 18.85028,63.0272 33.826087,95.6443 7.487916,16.3085 16.052729,32.6471 25.808403,48.7562 -9.755672,-16.1091 -18.319971,-32.4477 -25.807882,-48.7562 -14.97582,-32.6171 -25.885824,-65.1667 -33.826608,-95.6443 z m 957.929994,0 c -7.94079,30.4776 -18.85079,63.0272 -33.82661,95.6443 -7.48791,16.3085 -16.05221,32.6471 -25.80788,48.7562 9.75567,-16.1091 18.32049,-32.4477 25.8084,-48.7562 14.9758,-32.6171 25.88531,-65.1667 33.82609,-95.6443 z m -865.34058,191.7791 c 12.25253,15.3898 25.81075,30.2896 40.7891,44.44 -14.97824,-14.1503 -28.53665,-29.0503 -40.7891,-44.44 z m 772.75116,0 c -12.25253,15.3898 -25.81075,30.2896 -40.7891,44.44 14.97824,-14.1503 28.53665,-29.0503 40.7891,-44.44 z m -428.00638,62.1931 c 17.3017,17.4398 32.09063,30.7135 41.63054,38.9295 -9.5399,-8.216 -24.32884,-21.4896 -41.63054,-38.9295 z m 83.26161,0 c -17.30171,17.4398 -32.09064,30.7135 -41.63055,38.9295 9.5399,-8.216 24.32884,-21.4896 41.63055,-38.9295 z" /><path
       id="path113"
       style="baseline-shift:baseline;display:inline;overflow:visible;vector-effect:none;fill:#00ff00;stroke-width:1;stroke-linecap:round;stroke-linejoin:round;enable-background:accumulate;stop-color:#000000"
       d="m 31.461071,1362.1835 c -0.557207,0.1004 -1.109471,0.2258 -1.655196,0.3762 -0.558801,-0.093 -1.121747,-0.1601 -1.686719,-0.202 -1.017617,0.3331 -2.004459,0.7527 -2.949691,1.2542 -1.531165,0.4314 -3.000443,1.0561 -4.372343,1.8582 -1.295099,0.9205 -2.466913,2.0017 -3.486092,3.2179 -1.109583,1.1359 -2.068231,2.4084 -2.853056,3.7864 -0.658592,1.4403 -1.129462,2.9584 -1.400948,4.5175 -0.402657,0.9876 -0.719031,2.0078 -0.945679,3.0494 0,0 -5.1531359,129.3919 54.750147,259.8602 59.903276,130.4682 188.710526,262.8764 445.049836,264.0991 0.0296,-0.01 0.0593,-0.016 0.0889,-0.024 0.0293,0.01 0.0596,0.014 0.0889,0.024 256.33929,-1.2228 385.14655,-133.6309 445.04983,-264.0991 59.90324,-130.4683 54.75004,-259.8602 54.75004,-259.8602 -0.2266,-1.0416 -0.543,-2.0618 -0.9456,-3.0494 -0.2715,-1.5591 -0.7424,-3.0772 -1.401,-4.5175 -0.7849,-1.378 -1.7439,-2.6505 -2.8536,-3.7864 -1.0191,-1.2161 -2.1904,-2.2974 -3.4855,-3.2179 -1.3719,-0.8021 -2.8411,-1.4268 -4.37231,-1.8582 -0.94522,-0.5015 -1.93207,-0.9211 -2.94969,-1.2542 -0.56497,0.042 -1.12793,0.109 -1.68672,0.202 -0.54573,-0.1504 -1.09798,-0.2758 -1.65519,-0.3762 -1.04725,0.2254 -2.07301,0.54 -3.06597,0.9405 -1.56731,0.2701 -3.0934,0.7382 -4.54132,1.3932 -1.38618,0.7805 -2.66639,1.7344 -3.80907,2.8381 -1.22183,1.0132 -2.30846,2.1776 -3.2334,3.4649 -0.80651,1.3645 -1.43439,2.8261 -1.8681,4.3491 -0.50425,0.9401 -0.92595,1.9216 -1.2609,2.9337 0,0 -11.43529,77.8424 -56.65184,152.015 -40.58297,66.5717 -105.18839,128.9245 -216.45966,132.2028 0,0 -24.03185,0.6409 -41.82845,-1.4397 -9.65353,20.4559 -21.44314,34.879 -21.44314,34.879 -9.01577,13.4909 -18.46467,26.3803 -28.04015,38.5418 -39.18178,49.7635 -79.25736,86.4249 -98.33715,102.8568 -19.07977,-16.4318 -59.1553,-53.0937 -98.33715,-102.8573 -9.57548,-12.1615 -19.0249,-25.0504 -28.04066,-38.5413 0,0 -11.78961,-14.4231 -21.44314,-34.879 -17.7966,2.0806 -41.82794,1.4397 -41.82794,1.4397 -111.2713,-3.278 -175.87669,-65.6306 -216.45965,-132.2023 -45.216547,-74.1726 -56.651839,-152.0155 -56.651839,-152.0155 -0.334942,-1.0121 -0.757174,-1.9935 -1.261422,-2.9337 -0.433706,-1.5229 -1.061593,-2.9846 -1.868103,-4.3491 -0.92493,-1.2873 -2.01105,-2.4517 -3.232878,-3.4649 -1.142685,-1.1037 -2.422885,-2.0577 -3.80907,-2.8381 -1.447922,-0.655 -2.974021,-1.1232 -4.541325,-1.3932 -0.99296,-0.4005 -2.018712,-0.7151 -3.065962,-0.9405 z" /><path
       id="path114"
       style="baseline-shift:baseline;display:inline;overflow:visible;vector-effect:none;fill:#0000ff;stroke-width:1;stroke-linecap:round;stroke-linejoin:round;enable-background:accumulate;stop-color:#000000"
       d="m 511.9997,1024 v 49.2337 c 17.58069,23.2934 49.04725,66.6849 82.85799,123.2116 -33.81094,-56.5272 -65.27688,-99.9183 -82.85748,-123.2116 V 1024 Z m -5.83737,0.9571 c -0.6461,0.2119 -1.2776,0.4579 -1.89291,0.7369 0.61723,-0.2798 1.24781,-0.5254 1.89291,-0.7369 z m 11.67525,0 c 0.6461,0.2119 1.2776,0.4579 1.89291,0.7369 -0.61723,-0.2798 -1.24781,-0.5254 -1.89291,-0.7369 z m -14.01413,0.9281 c -0.73559,0.3568 -1.44226,0.7655 -2.12287,1.2139 0.68252,-0.4495 1.38904,-0.858 2.12287,-1.2139 z m 16.35301,0 c 0.73559,0.3568 1.44226,0.7655 2.12287,1.2139 -0.68252,-0.4495 -1.38904,-0.858 -2.12287,-1.2139 z m -18.99419,1.5849 c -0.51771,0.3671 -1.01678,0.7602 -1.495,1.1787 0.47957,-0.4197 0.97788,-0.8122 1.495,-1.1787 z m 21.63537,0 c 0.51771,0.3671 1.01678,0.7602 1.495,1.1787 -0.47957,-0.4197 -0.97788,-0.8122 -1.495,-1.1787 z m -23.66315,1.6536 c -0.59702,0.5644 -1.17076,1.1564 -1.69137,1.7994 0.52259,-0.6455 1.09556,-1.2362 1.69137,-1.7994 z m 25.69093,0 c 0.59702,0.5644 1.17076,1.1564 1.69137,1.7994 -0.52259,-0.6455 -1.09556,-1.2362 -1.69137,-1.7994 z m -137.62415,243.5046 c -24.73368,46.5319 -35.67586,80.2881 -35.67586,80.2881 3.04946,33.7565 9.57597,74.1619 22.83685,115.3201 25.31826,78.5805 67.07799,129.0187 104.95948,160.6207 -31.49345,16.3225 -69.36961,27.7193 -115.16248,32.0239 9.64474,20.4374 21.42185,34.853 21.44314,34.879 49.40673,-6.8739 90.70152,-22.149 119.32915,-38.9248 2.29379,-1.3442 4.64572,-2.7662 7.04866,-4.27 2.40284,1.5038 4.75446,2.9259 7.04815,4.27 28.62763,16.7758 69.92242,32.0509 119.32915,38.9248 0.0213,-0.026 11.7984,-14.4416 21.44314,-34.879 -45.79273,-4.3046 -83.66857,-15.7015 -115.16197,-32.0239 37.88141,-31.602 79.64078,-82.0404 104.95897,-160.6207 13.26088,-41.1582 19.78739,-81.5636 22.83685,-115.3201 0,0 -10.94218,-33.7562 -35.67586,-80.2881 1.11387,17.6885 4.44415,99.9945 -22.71127,184.2771 -26.32882,81.7172 -69.3538,127.4706 -102.06716,151.8967 -32.71339,-24.426 -75.73878,-70.1793 -102.06767,-151.8967 -27.15542,-84.2826 -23.82514,-166.5886 -22.71127,-184.2771 z m 83.14789,525.601 c 17.3017,17.4399 32.09064,30.7134 41.63054,38.9294 -9.53991,-8.216 -24.32884,-21.4896 -41.63054,-38.9294 z m 83.26159,0 c -17.3017,17.4399 -32.09064,30.7134 -41.63054,38.9294 9.53991,-8.216 24.32884,-21.4896 41.63054,-38.9294 z" /><path
       style="font-variation-settings:normal;fill:none;fill-opacity:0.530035;stroke:#ff0000;stroke-width:1;stroke-linecap:butt;stroke-linejoin:round;stroke-miterlimit:4;stroke-dasharray:none;stroke-dashoffset:0;stroke-opacity:1;stop-color:#000000"
       d="m -4481.7563,2287.6052 c 18.6802,-198.4756 210.0707,-436.6464 210.0707,-436.6464 0,0 191.3908,238.1708 210.0708,436.6464 18.6803,198.4758 -210.0707,379.4117 -210.0707,379.4117 0,0 -228.7509,-180.9359 -210.0708,-379.4117 z"
       id="path8"
       sodipodi:nodetypes="scscs" /><path
       style="font-variation-settings:normal;fill:none;fill-opacity:0.530035;stroke:#ff0000;stroke-width:1;stroke-linecap:butt;stroke-linejoin:round;stroke-miterlimit:4;stroke-dasharray:none;stroke-dashoffset:0;stroke-opacity:1;stop-color:#000000"
       d="m -4413.5459,2075.0898 c 0,0 -34.6705,381.6179 288.5679,410.6712 m 0,0 c 284.0157,25.528 330.3055,-297.7875 330.3055,-297.7875 m 0,0 c 0,0 18.7089,500.5998 -477.013,502.9772 m 0,0 c -495.7219,-2.3774 -477.013,-502.9772 -477.013,-502.9772 m 0,0 c 0,0 46.2899,323.3155 330.3055,297.7875 m 0,0 c 323.2385,-29.0533 288.568,-410.6712 288.568,-410.6712"
       id="path10-4"
       sodipodi:nodetypes="cccccccccccc" /><g
       id="g132"
       transform="matrix(0.99999691,0,0,1,3.7103972e-5,0)"
       style="stroke-width:1"><g
         id="g131"
         transform="matrix(0.994441,0,0,1.0073948,2.8462806,-3.7854323)"
         style="stroke-width:0.999105"><path
           id="path61"
           style="baseline-shift:baseline;display:inline;overflow:visible;opacity:1;vector-effect:none;fill:#00ff00;stroke-width:1.00189;stroke-linecap:round;stroke-linejoin:round;enable-background:accumulate;stop-color:#000000;stop-opacity:1"
           d="m 127.74637,337.96698 c -10.30946,3.8e-4 -18.66666,8.35806 -18.66646,18.66752 -1.5e-4,3.43159 0.94561,6.79682 2.73338,9.72593 22.03512,50.43063 37.54023,108.66854 33.4563,167.70613 -11.56544,167.19072 -133.494194,376.54636 -133.494194,376.54636 -5.1958239,8.79789 -2.2760273,20.14202 6.521646,25.33821 8.798068,5.19663 20.143019,2.27686 25.339324,-6.5214 0,0 125.923794,-210.29435 138.549384,-392.81063 3.97774,-57.50241 -8.27312,-112.63833 -26.75954,-161.31656 h 179.76723 c -5.68223,14.96272 -10.77524,30.5357 -14.98887,46.59983 H 170.41563 c -10.30946,6.3e-4 -18.66639,8.35858 -18.66594,18.66804 6.2e-4,10.3087 8.35724,18.66536 18.66594,18.66599 h 141.84812 c -2.94175,18.14981 -4.59166,36.7711 -4.57919,55.71275 H 177.86902 c -10.3087,6.2e-4 -18.66583,8.35729 -18.66646,18.66599 -4.5e-4,10.30946 8.357,18.66742 18.66646,18.66804 H 309.785 c 18.34975,178.66572 137.19777,377.14655 137.19777,377.14655 5.19631,8.79825 16.54125,11.71802 25.33932,6.5214 8.79767,-5.19619 11.71747,-16.54032 6.52165,-25.33821 0,0 -121.54601,-208.69778 -133.43912,-375.75741 0.0269,-0.40993 0.0405,-0.82364 0.0405,-1.24037 -7e-5,-1.22781 -0.11871,-2.42764 -0.34504,-3.58926 -1.52802,-28.20178 1.35223,-56.18455 7.21382,-83.18235 0.50209,-1.40718 0.84013,-2.89205 0.99098,-4.43207 6.11871,-26.60234 15.07945,-52.2 25.50093,-76.05103 1.78777,-2.92911 2.73353,-6.29434 2.73338,-9.72593 2e-4,-10.30946 -8.357,-18.66714 -18.66646,-18.66752 z"
           sodipodi:nodetypes="cccscscscccccccccccccsccsccccccc" /><path
           id="path34"
           style="baseline-shift:baseline;display:inline;overflow:visible;opacity:1;vector-effect:none;fill:#0000ff;stroke-width:1.00189;stroke-linecap:round;stroke-linejoin:round;enable-background:accumulate;stop-color:#000000;stop-opacity:1"
           d="m 615.37691,75.234167 a 18.50115,18.50115 0 0 0 -7.04505,1.574581 18.50115,18.50115 0 0 0 -9.44128,24.402132 c 12.69817,28.72922 29.06098,57.0737 51.65886,77.96165 -24.94304,-2.69924 -40.905,-5.1139 -40.905,-5.1139 a 18.50115,18.50115 0 0 0 -21.06435,15.51946 18.50115,18.50115 0 0 0 15.51947,21.06435 c 0,0 25.0506,3.80225 61.70528,7.26674 -0.20418,32.21824 -1.57013,81.86316 -7.01766,132.38365 -4.61682,42.81648 -12.28661,86.20992 -23.94738,118.94158 -11.66077,32.73167 -27.01665,51.89242 -41.13495,55.66378 a 18.50115,18.50115 0 0 0 -13.09946,22.64875 18.50115,18.50115 0 0 0 22.64874,13.09946 c 33.7907,-9.02636 53.08194,-41.48984 66.44298,-78.99415 5.71497,-16.04188 10.39922,-33.53845 14.26373,-51.78753 8.51835,32.78633 12.90919,67.28209 10.50375,102.05527 C 682.89916,699.1107 560.96886,908.46703 560.96886,908.46703 a 18.50115,18.50115 0 0 0 6.52157,25.33747 18.50115,18.50115 0 0 0 25.33953,-6.52105 c 0,0 125.92358,-210.29283 138.54917,-392.8091 4.5778,-66.17708 -12.33906,-129.22134 -35.51773,-182.89374 5.23917,-49.81133 6.67562,-98.14359 6.93705,-130.67265 9.2523,0.62145 18.85662,1.16644 28.67421,1.59215 22.78313,0.98792 46.62425,1.57982 70.11045,0.92811 23.48626,0.65171 47.32728,0.0598 70.11045,-0.92811 10.00937,-0.43402 19.79682,-0.99221 29.21579,-1.62884 -0.2691,32.25141 -1.71374,80.42468 -6.99699,129.42156 -4.61683,42.81648 -12.28454,86.20991 -23.94531,118.94158 -8.30238,23.3047 -18.47924,39.72991 -28.74811,48.61925 1.29199,-50.72244 15.77738,-100.06089 35.002,-143.48065 a 18.50115,18.50115 0 0 0 -9.42785,-24.40832 18.50115,18.50115 0 0 0 -9.46092,-1.47847 18.50115,18.50115 0 0 0 -14.94535,10.90631 c -24.19737,54.65095 -42.23051,119.40482 -37.52174,187.47487 12.62558,182.51627 138.54917,392.81013 138.54917,392.81013 a 18.50115,18.50115 0 0 0 25.33747,6.52156 18.50115,18.50115 0 0 0 6.52157,-25.33954 c 0,0 -114.84356,-197.18918 -132.18883,-361.65079 30.90068,-10.67413 49.00946,-41.82809 61.73783,-77.55651 13.36103,-37.5043 21.08795,-82.96012 25.87904,-127.39274 5.64354,-52.33824 7.0457,-103.32949 7.24504,-136.40562 36.33594,-3.44949 61.1203,-7.21145 61.1203,-7.21145 a 18.50115,18.50115 0 0 0 15.51943,-21.06435 18.50115,18.50115 0 0 0 -21.06483,-15.51946 c 0,0 -15.96145,2.41466 -40.90448,5.1139 22.59788,-20.88796 38.96069,-49.23243 51.65891,-77.96165 A 18.50115,18.50115 0 0 0 994.83385,76.808748 18.50115,18.50115 0 0 0 985.37086,75.33597 18.50115,18.50115 0 0 0 970.43172,86.2521 c -15.22914,34.45551 -36.22165,64.97493 -60.38081,78.61484 -21.81279,12.31519 -63.41914,18.6716 -108.4678,20.69486 C 756.53445,183.53854 714.9281,177.18213 693.11532,164.86694 668.95616,151.22702 647.96366,120.7076 632.73451,86.2521 a 18.50115,18.50115 0 0 0 -14.93966,-10.91613 18.50115,18.50115 0 0 0 -2.41794,-0.101803 z" /><path
           id="path68"
           style="baseline-shift:baseline;display:inline;overflow:visible;opacity:1;vector-effect:none;fill:#ff0000;stroke-width:1.00189;stroke-linecap:round;stroke-linejoin:round;enable-background:accumulate;stop-color:#000000;stop-opacity:1"
           d="m 59.103369,75.234167 a 18.50115,18.50115 0 0 0 -7.044531,1.574581 18.50115,18.50115 0 0 0 -9.441801,24.402132 c 12.698164,28.72923 29.060987,57.0737 51.658862,77.96165 -24.943033,-2.69924 -40.904996,-5.1139 -40.904996,-5.1139 a 18.50115,18.50115 0 0 0 -21.064348,15.51946 18.50115,18.50115 0 0 0 15.519466,21.06435 c 0,0 58.419889,8.86773 127.373109,11.85767 16.9281,0.73404 34.44038,1.24926 51.95703,1.19838 l -0.34675,38.43228 H 106.49427 a 18.66715,18.66715 0 0 0 -18.668106,18.66811 18.66715,18.66715 0 0 0 18.668106,18.66811 h 277.63267 a 18.66715,18.66715 0 0 0 18.66605,-18.66811 18.66715,18.66715 0 0 0 -18.66605,-18.66811 H 264.14667 l 0.34623,-38.4297 c 17.17294,0.0283 34.3308,-0.48131 50.92712,-1.20096 68.95322,-2.98994 127.37311,-11.85767 127.37311,-11.85767 a 18.50115,18.50115 0 0 0 15.51946,-21.06435 18.50115,18.50115 0 0 0 -21.06434,-15.51946 c 0,0 -15.96196,2.41466 -40.905,5.1139 22.59788,-20.88795 38.9607,-49.23242 51.65886,-77.96165 a 18.50115,18.50115 0 0 0 -9.4418,-24.402132 18.50115,18.50115 0 0 0 -9.46247,-1.472778 18.50115,18.50115 0 0 0 -14.93966,10.91613 c -15.22913,34.45549 -36.22164,64.97492 -60.38081,78.61484 -18.61518,10.50987 -51.6463,16.68014 -88.92997,19.52077 l 0.33021,-36.60448 a 18.66715,18.66715 0 0 0 -18.49809,-18.83606 18.66715,18.66715 0 0 0 -18.83555,18.49809 l -0.33434,37.07216 c -37.99344,-2.78005 -71.76395,-8.9776 -90.66785,-19.65048 C 112.68262,151.22702 91.690103,120.70759 76.460966,86.2521 A 18.50115,18.50115 0 0 0 61.521309,75.33597 18.50115,18.50115 0 0 0 59.103369,75.234167 Z" /></g></g><g
       id="g51"
       transform="matrix(1.0473408,0,0,1.0504324,-105.0519,-113.58782)"
       style="stroke-width:0.953393"><path
         style="font-variation-settings:normal;fill:none;fill-opacity:1;stroke:#0000ff;stroke-width:3.52777;stroke-linecap:round;stroke-linejoin:round;stroke-miterlimit:4;stroke-dasharray:none;stroke-dashoffset:0;stroke-opacity:1;stop-color:#000000"
         d="m -1523.0773,356.63469 c -23.3762,52.79612 -40.4074,114.71759 -35.9808,178.70861 12.0955,174.8535 136.0216,384.67785 136.0216,384.67785"
         id="path116" /><path
         style="font-variation-settings:normal;fill:none;fill-opacity:1;stroke:#0000ff;stroke-width:3.52777;stroke-linecap:round;stroke-linejoin:round;stroke-miterlimit:4;stroke-dasharray:none;stroke-dashoffset:0;stroke-opacity:1;stop-color:#000000"
         d="m -1758.2033,356.63469 c 23.3761,52.79612 40.4074,114.71759 35.9808,178.70861 -12.0955,174.8535 -136.0216,384.67785 -136.0216,384.67785"
         id="path117" /><path
         style="fill:#ff00ff;fill-opacity:1;stroke:#ff00ff;stroke-width:3.55942;stroke-linecap:round;stroke-linejoin:round;stroke-dasharray:none;stroke-opacity:1"
         d="m -1725.8249,569.05427 h 170.3692"
         id="path122"
         sodipodi:nodetypes="cc" /><path
         style="fill:#ff00ff;fill-opacity:1;stroke:#ff00ff;stroke-width:3.55942;stroke-linecap:round;stroke-linejoin:round;stroke-dasharray:none;stroke-opacity:1"
         d="m -1725.775,462.84448 h 167.5474"
         id="path123"
         sodipodi:nodetypes="cc" /><path
         style="fill:none;fill-opacity:1;stroke:#008000;stroke-width:3.55942;stroke-linecap:round;stroke-linejoin:round;stroke-dasharray:none;stroke-opacity:1"
         d="m -1639.439,147.61449 -1.2013,133.18424"
         id="path124"
         sodipodi:nodetypes="cc" /><path
         style="fill:none;fill-opacity:1;stroke:#0000ff;stroke-width:3.55942;stroke-linecap:round;stroke-linejoin:round;stroke-dasharray:none;stroke-opacity:1"
         d="m -1758.2033,356.63469 h 235.126"
         id="path127" /><path
         style="fill:none;fill-opacity:1;stroke:#00ffff;stroke-width:3.55942;stroke-linecap:round;stroke-linejoin:round;stroke-dasharray:none;stroke-opacity:1"
         d="m -1779.4566,280.79873 h 277.6326"
         id="path129" /><path
         style="font-variation-settings:normal;opacity:1;vector-effect:none;fill:none;fill-opacity:1;stroke:#ff0000;stroke-width:3.52777;stroke-linecap:round;stroke-linejoin:round;stroke-miterlimit:4;stroke-dasharray:none;stroke-dashoffset:0;stroke-opacity:1;-inkscape-stroke:none;stop-color:#000000;stop-opacity:1"
         d="m -1826.4112,93.730994 c 0,0 13.2992,109.828906 186.4676,109.828906 173.1684,0 185.0742,-109.828906 185.0742,-109.828906"
         id="path1" /><path
         style="fill:none;fill-opacity:1;stroke:#ffff00;stroke-width:3.55942;stroke-linecap:round;stroke-linejoin:round;stroke-dasharray:none;stroke-opacity:1"
         d="m -1834.6547,203.5599 h 389.4222"
         id="path2" /><path
         style="font-variation-settings:normal;opacity:1;vector-effect:none;fill:none;fill-opacity:1;stroke:#ff0000;stroke-width:3.52777;stroke-linecap:round;stroke-linejoin:round;stroke-miterlimit:4;stroke-dasharray:none;stroke-dashoffset:0;stroke-opacity:1;-inkscape-stroke:none;stop-color:#000000;stop-opacity:1"
         d="m -1287.4706,93.730994 c 0,0 13.2992,109.828906 186.4676,109.828906 173.16839,0 185.07419,-109.828906 185.07419,-109.828906"
         id="path3" /><path
         style="font-variation-settings:normal;fill:none;fill-opacity:1;stroke:#00ffff;stroke-width:3.52777;stroke-linecap:round;stroke-linejoin:round;stroke-miterlimit:4;stroke-dasharray:none;stroke-dashoffset:0;stroke-opacity:1;stop-color:#000000"
         d="m -1296.4274,569.07087 c 95.818,-25.59545 85.5407,-365.51097 85.5407,-365.51097"
         id="path121"
         sodipodi:nodetypes="cc" /><path
         style="fill:none;fill-opacity:1;stroke:#ffff00;stroke-width:3.55942;stroke-linecap:round;stroke-linejoin:round;stroke-dasharray:none;stroke-opacity:1"
         d="m -1296.4108,203.5599 h 389.42219"
         id="path4" /><path
         style="font-variation-settings:normal;fill:none;fill-opacity:1;stroke:#0000ff;stroke-width:3.52777;stroke-linecap:round;stroke-linejoin:round;stroke-miterlimit:4;stroke-dasharray:none;stroke-dashoffset:0;stroke-opacity:1;stop-color:#000000"
         d="m -1015.5225,364.57219 c -23.3761,52.79612 -40.4074,114.71759 -35.9808,178.70861 12.0955,174.8535 136.02154,384.67785 136.02154,384.67785"
         id="path5" /><path
         style="font-variation-settings:normal;fill:none;fill-opacity:1;stroke:#0000ff;stroke-width:3.52777;stroke-linecap:round;stroke-linejoin:round;stroke-miterlimit:4;stroke-dasharray:none;stroke-dashoffset:0;stroke-opacity:1;stop-color:#000000"
         d="m -1215.5934,356.63469 c 23.376,52.79612 40.4074,114.71759 35.9808,178.70861 -12.0955,174.8535 -136.0216,384.67785 -136.0216,384.67785"
         id="path6" /><path
         style="font-variation-settings:normal;fill:none;fill-opacity:1;stroke:#008000;stroke-width:3.52777;stroke-linecap:round;stroke-linejoin:round;stroke-miterlimit:4;stroke-dasharray:none;stroke-dashoffset:0;stroke-opacity:1;stop-color:#000000"
         d="m -1047.3617,569.07087 c 95.81796,-25.59545 85.54066,-365.51097 85.54066,-365.51097"
         id="path7"
         sodipodi:nodetypes="cc" /></g><path
       id="path10"
       style="font-variation-settings:normal;fill:none;fill-opacity:0.530035;stroke:#008080;stroke-width:3.70024;stroke-linecap:round;stroke-linejoin:round;stroke-miterlimit:4;stroke-dasharray:none;stroke-dashoffset:0;stroke-opacity:1;stop-color:#000000"
       d="M -3473.558 269.92164 C -3473.5602 269.89608 -3473.5614 269.88323 -3473.5614 269.88323 " /><path
       id="path18"
       style="font-variation-settings:normal;fill:none;fill-opacity:0.530035;stroke:#008080;stroke-width:3.70024;stroke-linecap:round;stroke-linejoin:round;stroke-miterlimit:4;stroke-dasharray:none;stroke-dashoffset:0;stroke-opacity:1;stop-color:#000000"
       d="M -3772.266 681.32485 C -3768.9213 681.11766 -3765.5426 680.86126 -3762.1295 680.55449 " /><path
       id="path13"
       style="font-variation-settings:normal;fill:none;fill-opacity:0.530035;stroke:#008080;stroke-width:3.70024;stroke-linecap:round;stroke-linejoin:round;stroke-miterlimit:4;stroke-dasharray:none;stroke-dashoffset:0;stroke-opacity:1;stop-color:#000000"
       d="M -3468.7144 680.55449 C -3465.3013 680.86126 -3461.9226 681.11766 -3458.5779 681.32485 " /><path
       id="path11"
       style="font-variation-settings:normal;fill:none;fill-opacity:0.530035;stroke:#008080;stroke-width:3.70024;stroke-linecap:round;stroke-linejoin:round;stroke-miterlimit:4;stroke-dasharray:none;stroke-dashoffset:0;stroke-opacity:1;stop-color:#000000"
       d="M -3757.2824 269.88323 C -3757.2824 269.88323 -3757.2836 269.89608 -3757.2858 269.92164 " /><path
       style="font-variation-settings:normal;fill:none;fill-opacity:0.530035;stroke:#ff0000;stroke-width:3.70024;stroke-linecap:round;stroke-linejoin:round;stroke-miterlimit:4;stroke-dasharray:none;stroke-dashoffset:0;stroke-opacity:1;stop-color:#000000"
       d="m -3939.0388,-566.79457 c 18.6802,-198.4756 210.0706,-436.64653 210.0706,-436.64653 0,0 191.3909,238.17093 210.0709,436.64653 18.6803,198.4758 -210.0708,379.41168 -210.0708,379.41168 0,0 -228.7508,-180.93588 -210.0707,-379.41168 z"
       id="path19"
       sodipodi:nodetypes="scscs" /><path
       style="font-variation-settings:normal;fill:none;fill-opacity:0.530035;stroke:#ff0000;stroke-width:3.70024;stroke-linecap:round;stroke-linejoin:round;stroke-miterlimit:4;stroke-dasharray:none;stroke-dashoffset:0;stroke-opacity:1;stop-color:#000000"
       d="m -3870.8285,-779.31003 c 0,0 -34.6704,381.61796 288.568,410.67126 m 0,0 c 284.0157,25.528 330.3055,-297.7875 330.3055,-297.7875 m 0,0 c 0,0 18.7089,500.59978 -477.0131,502.97718 m 0,0 c -495.7218,-2.3774 -477.0129,-502.97718 -477.0129,-502.97718 m 0,0 c 0,0 46.2899,323.3155 330.3054,297.7875 m 0,0 c 323.2386,-29.0533 288.5681,-410.67126 288.5681,-410.67126"
       id="path20"
       sodipodi:nodetypes="cccccccccccc" /><g
       id="g50"
       transform="matrix(1.0401057,0,0,1.0432297,129.63624,0.65415931)"
       style="stroke-width:0.96"><g
         id="g49"
         style="stroke-width:0.96"><path
           style="font-variation-settings:normal;fill:none;fill-opacity:0.530035;stroke:#00ffff;stroke-width:3.55223;stroke-linecap:round;stroke-linejoin:round;stroke-miterlimit:4;stroke-dasharray:none;stroke-dashoffset:0;stroke-opacity:1;stop-color:#000000"
           d="m -2912.351,620.45563 c 43.4702,-2.66279 103.503,-13.73415 157.0784,-49.5116"
           id="path39"
           sodipodi:nodetypes="cc" /><path
           style="font-variation-settings:normal;fill:none;fill-opacity:0.530035;stroke:#0000ff;stroke-width:3.55223;stroke-linecap:round;stroke-linejoin:round;stroke-miterlimit:4;stroke-dasharray:none;stroke-dashoffset:0;stroke-opacity:1;stop-color:#000000"
           d="m -3232.274,321.88263 c 0,0 45.1571,315.4034 319.923,298.573"
           id="path36" /><path
           style="font-variation-settings:normal;fill:none;fill-opacity:0.530035;stroke:#0000ff;stroke-width:3.55223;stroke-linecap:round;stroke-linejoin:round;stroke-miterlimit:4;stroke-dasharray:none;stroke-dashoffset:0;stroke-opacity:1;stop-color:#000000"
           d="m -2755.2726,824.85983 c -495.7218,-2.3774 -477.0014,-502.9772 -477.0014,-502.9772"
           id="path35"
           sodipodi:nodetypes="cc" /><path
           style="font-variation-settings:normal;fill:none;fill-opacity:0.530035;stroke:#ffff00;stroke-width:3.55223;stroke-linecap:round;stroke-linejoin:round;stroke-miterlimit:4;stroke-dasharray:none;stroke-dashoffset:0;stroke-opacity:1;stop-color:#000000"
           d="m -2897.1215,208.99893 c 0,0 -22.9688,251.8962 141.8489,361.9451"
           id="path32"
           sodipodi:nodetypes="cc" /><path
           style="font-variation-settings:normal;fill:none;fill-opacity:0.530035;stroke:#ff0000;stroke-width:3.55223;stroke-linecap:round;stroke-linejoin:round;stroke-miterlimit:4;stroke-dasharray:none;stroke-dashoffset:0;stroke-opacity:1;stop-color:#000000"
           d="m -2897.1394,208.99003 c 61.6408,-124.272798 141.8668,-224.122198 141.8668,-224.122198"
           id="path41" /><path
           style="font-variation-settings:normal;fill:none;fill-opacity:0.530035;stroke:#008000;stroke-width:3.55223;stroke-linecap:round;stroke-linejoin:round;stroke-miterlimit:4;stroke-dasharray:none;stroke-dashoffset:0;stroke-opacity:1;stop-color:#000000"
           d="m -2912.1646,620.34555 c -34.8576,-59.04103 -59.8513,-127.81329 -53.1672,-198.83122 6.5851,-69.966 34.6326,-144.8649 68.1924,-212.5243"
           id="path40" /><path
           style="font-variation-settings:normal;fill:none;fill-opacity:0.530035;stroke:#ff00ff;stroke-width:3.55223;stroke-linecap:round;stroke-linejoin:round;stroke-miterlimit:4;stroke-dasharray:none;stroke-dashoffset:0;stroke-opacity:1;stop-color:#000000"
           d="m -2841.8023,716.41529 c -23.8047,-27.19221 -48.9453,-59.7942 -70.3623,-96.06974"
           id="path49" /><path
           style="font-variation-settings:normal;fill:none;fill-opacity:0.530035;stroke:#ff00ff;stroke-width:3.55223;stroke-linecap:round;stroke-linejoin:round;stroke-miterlimit:4;stroke-dasharray:none;stroke-dashoffset:0;stroke-opacity:1;stop-color:#000000"
           d="m -2755.2726,800.92603 c 0,0 -40.7998,-32.27319 -86.5297,-84.51074"
           id="path31" /></g><g
         id="g48"
         transform="translate(-287.86666)"
         style="stroke-width:0.96"><path
           style="font-variation-settings:normal;fill:none;fill-opacity:0.530035;stroke:#00ffff;stroke-width:3.55223;stroke-linecap:round;stroke-linejoin:round;stroke-miterlimit:4;stroke-dasharray:none;stroke-dashoffset:0;stroke-opacity:1;stop-color:#000000"
           d="m -2306.6273,620.45563 c -43.4702,-2.66279 -103.503,-13.73415 -157.0784,-49.5116"
           id="path42"
           sodipodi:nodetypes="cc" /><path
           style="font-variation-settings:normal;fill:none;fill-opacity:0.530035;stroke:#0000ff;stroke-width:3.55223;stroke-linecap:round;stroke-linejoin:round;stroke-miterlimit:4;stroke-dasharray:none;stroke-dashoffset:0;stroke-opacity:1;stop-color:#000000"
           d="m -1986.7043,321.88263 c 0,0 -45.1571,315.4034 -319.923,298.573"
           id="path43" /><path
           style="font-variation-settings:normal;fill:none;fill-opacity:0.530035;stroke:#0000ff;stroke-width:3.55223;stroke-linecap:round;stroke-linejoin:round;stroke-miterlimit:4;stroke-dasharray:none;stroke-dashoffset:0;stroke-opacity:1;stop-color:#000000"
           d="m -2463.7057,824.85983 c 495.7218,-2.3774 477.0014,-502.9772 477.0014,-502.9772"
           id="path44"
           sodipodi:nodetypes="cc" /><path
           style="font-variation-settings:normal;fill:none;fill-opacity:0.530035;stroke:#ffff00;stroke-width:3.55223;stroke-linecap:round;stroke-linejoin:round;stroke-miterlimit:4;stroke-dasharray:none;stroke-dashoffset:0;stroke-opacity:1;stop-color:#000000"
           d="m -2321.8568,208.99893 c 0,0 22.9688,251.8962 -141.8489,361.9451"
           id="path45"
           sodipodi:nodetypes="cc" /><path
           style="font-variation-settings:normal;fill:none;fill-opacity:0.530035;stroke:#ff0000;stroke-width:3.55223;stroke-linecap:round;stroke-linejoin:round;stroke-miterlimit:4;stroke-dasharray:none;stroke-dashoffset:0;stroke-opacity:1;stop-color:#000000"
           d="M -2321.8389,208.99003 C -2383.4797,84.717232 -2463.7057,-15.132168 -2463.7057,-15.132168"
           id="path46" /><path
           style="font-variation-settings:normal;fill:none;fill-opacity:0.530035;stroke:#008000;stroke-width:3.55223;stroke-linecap:round;stroke-linejoin:round;stroke-miterlimit:4;stroke-dasharray:none;stroke-dashoffset:0;stroke-opacity:1;stop-color:#000000"
           d="m -2463.7057,800.92603 c 0,0 94.332,-74.61788 156.892,-180.58048 34.8576,-59.04103 59.8513,-127.81329 53.1672,-198.83122 -6.5851,-69.966 -34.6326,-144.8649 -68.1924,-212.5243"
           id="path48"
           sodipodi:nodetypes="ccsc" /></g></g><path
       style="font-variation-settings:normal;fill:none;fill-opacity:1;stroke:#0000ff;stroke-width:3.70023;stroke-linecap:round;stroke-linejoin:round;stroke-miterlimit:4;stroke-dasharray:none;stroke-dashoffset:0;stroke-opacity:1;stop-color:#000000"
       d="m -3254.7928,2136.3994 c -24.4829,55.4588 -42.3203,120.5031 -37.6842,187.7213 12.6681,183.6718 142.461,404.0781 142.461,404.0781"
       id="path9" /><path
       style="font-variation-settings:normal;fill:none;fill-opacity:1;stroke:#0000ff;stroke-width:3.70023;stroke-linecap:round;stroke-linejoin:round;stroke-miterlimit:4;stroke-dasharray:none;stroke-dashoffset:0;stroke-opacity:1;stop-color:#000000"
       d="m -3501.0499,2136.3994 c 24.4828,55.4588 42.3203,120.5031 37.6842,187.7213 -12.6681,183.6718 -142.461,404.0781 -142.461,404.0781"
       id="path12" /><path
       style="fill:#ff00ff;fill-opacity:1;stroke:#ff00ff;stroke-width:3.73342;stroke-linecap:round;stroke-linejoin:round;stroke-dasharray:none;stroke-opacity:1"
       d="m -3467.1387,2359.5318 h 178.4347"
       id="path14"
       sodipodi:nodetypes="cc" /><path
       style="fill:#ff00ff;fill-opacity:1;stroke:#ff00ff;stroke-width:3.73342;stroke-linecap:round;stroke-linejoin:round;stroke-dasharray:none;stroke-opacity:1"
       d="m -3467.0864,2247.9656 h 175.4792"
       id="path15"
       sodipodi:nodetypes="cc" /><path
       style="fill:none;fill-opacity:1;stroke:#008000;stroke-width:3.73342;stroke-linecap:round;stroke-linejoin:round;stroke-dasharray:none;stroke-opacity:1"
       d="m -3376.6632,1916.8378 -1.2582,219.5616"
       id="path16"
       sodipodi:nodetypes="cc" /><path
       style="fill:none;fill-opacity:1;stroke:#0000ff;stroke-width:3.73342;stroke-linecap:round;stroke-linejoin:round;stroke-dasharray:none;stroke-opacity:1"
       d="m -3501.0499,2136.3994 h 246.2571"
       id="path17" /><path
       style="fill:none;fill-opacity:1;stroke:#00ffff;stroke-width:3.73342;stroke-linecap:round;stroke-linejoin:round;stroke-dasharray:none;stroke-opacity:1"
       d="m -3523.3093,2056.7389 h 290.7759"
       id="path21" /><path
       style="font-variation-settings:normal;vector-effect:none;fill:none;fill-opacity:1;stroke:#ff0000;stroke-width:3.70023;stroke-linecap:round;stroke-linejoin:round;stroke-miterlimit:4;stroke-dasharray:none;stroke-dashoffset:0;stroke-opacity:1;-inkscape-stroke:none;stop-color:#000000"
       d="m -3572.4868,1860.2369 c 0,0 13.9288,115.3678 195.2951,115.3678 181.3664,0 193.8358,-115.3678 193.8358,-115.3678"
       id="path22" /><path
       style="fill:none;stroke:#ff0000;stroke-width:10;stroke-linecap:round;stroke-linejoin:round;stroke-dasharray:none;stroke-opacity:1"
       d="m -1224.0718,1927.7666 c 0,0 16.5722,115.3678 232.35799,115.3678"
       id="path89" /><path
       style="fill:none;stroke:#ff0000;stroke-width:10;stroke-linecap:round;stroke-linejoin:round;stroke-dasharray:none;stroke-opacity:1"
       d="m -1222.0487,2728.1988 c 219.7271,-281.4454 250.24186,-565.6092 161.0671,-579.2473 -97.1581,-14.8591 -192.8159,147.2529 -165.3698,196.6074 27.5097,49.4689 136.6941,-10.1754 165.3698,-196.6074 35.0791,-228.0633 -104.8988,-292.612 -146.4706,-259.4347"
       id="path67" /><path
       style="fill:none;stroke:#ff0000;stroke-width:10;stroke-linecap:round;stroke-linejoin:round;stroke-dasharray:none;stroke-opacity:1"
       d="m -759.35606,1927.7666 c 0,0 -16.5722,115.3678 -232.35803,115.3678"
       id="path88" /><path
       style="fill:none;stroke:#ff0000;stroke-width:10;stroke-linecap:round;stroke-linejoin:round;stroke-dasharray:none;stroke-opacity:1"
       d="m -761.37916,2728.1988 c -219.7271,-281.4454 -250.24194,-565.6092 -161.06712,-579.2473 97.1581,-14.8591 192.8159,147.2529 165.36981,196.6074 -27.50972,49.4689 -136.69412,-10.1754 -165.36981,-196.6074 -35.07914,-228.0633 104.89875,-292.612 146.47055,-259.4347"
       id="path69" /><path
       style="fill:none;stroke:#ff0000;stroke-width:10;stroke-linecap:round;stroke-linejoin:round;stroke-dasharray:none;stroke-opacity:1"
       d="m -2362.8385,1927.7666 c 0,0 13.0435,90.8025 166.6623,111.2931"
       id="path92"
       sodipodi:nodetypes="cc" /><path
       style="fill:none;stroke:#ff0000;stroke-width:10;stroke-linecap:round;stroke-linejoin:round;stroke-dasharray:none;stroke-opacity:1"
       d="m -2199.7483,2148.9515 c -97.1581,-14.859 -192.8159,147.2529 -165.3698,196.6074 27.5097,49.4689 136.6941,-10.1754 165.3698,-196.6074 35.0791,-228.0633 -104.8988,-292.612 -146.4706,-259.4347"
       id="path93"
       sodipodi:nodetypes="cssc" /><path
       style="fill:none;stroke:#ff0000;stroke-width:10;stroke-linecap:round;stroke-linejoin:round;stroke-dasharray:none;stroke-opacity:1"
       d="m -2029.5139,1927.7666 c 0,0 -13.0435,90.8025 -166.6623,111.2931"
       id="path95"
       sodipodi:nodetypes="cc" /><path
       style="fill:none;stroke:#ff0000;stroke-width:10;stroke-linecap:round;stroke-linejoin:round;stroke-dasharray:none;stroke-opacity:1"
       d="m -2192.6041,2148.9515 c 97.1581,-14.859 192.8159,147.2529 165.3698,196.6074 -27.5097,49.4689 -136.6941,-10.1754 -165.3698,-196.6074 -35.0791,-228.0633 104.8988,-292.612 146.4706,-259.4347"
       id="path96"
       sodipodi:nodetypes="cssc" /></g></svg>
